<svg width="21" height="11" viewBox="0 0 21 11" fill="none" xmlns="http://www.w3.org/2000/svg">
<path id="Vector" d="M0 5.39301C0 4.84201 0.447002 4.396 0.998002 4.396L13.5791 4.40409C14.6844 4.4048 15.2415 3.07123 14.4641 2.28549L14.2926 2.11207C13.9062 1.72151 13.9078 1.09218 14.2963 0.703691C14.6854 0.314666 15.3158 0.313595 15.7061 0.701294L19.719 4.68701C20.109 5.07801 20.109 5.734 19.719 6.125L15.7061 10.1107C15.3158 10.4984 14.6854 10.4973 14.2963 10.1083C13.9078 9.71984 13.9062 9.0905 14.2926 8.69994L14.4655 8.52512C15.2434 7.73881 14.6872 6.4042 13.5811 6.40313L0.998002 6.39099C0.447002 6.39099 0 5.94401 0 5.39301Z" fill="white"/>
</svg>
