<svg width="34" height="38" viewBox="0 0 34 38" fill="none" xmlns="http://www.w3.org/2000/svg">
<g id="Group 131">
<path id="Vector" d="M32.4545 3.09091H27.8182V0H24.7273V3.09091H9.27271V0H6.1818V3.09091H1.54544V6.18182H6.1818V9.27273H9.27271V6.18182H24.7273V9.27273H27.8182V6.18182H32.4545V3.09091Z" fill="#3DABC2"/>
<path id="Vector_2" d="M7.72727 7.72729C3.61636 7.72729 0 11.2509 0 15.2537V37.0909H15.4545V15.2537C15.4545 11.2509 11.8382 7.72729 7.72727 7.72729ZM3.09091 15.2537C3.09091 13.1982 5.11545 10.8182 7.72727 10.8182C10.3391 10.8182 12.3636 13.1982 12.3636 15.2537V26.2727H3.09091V15.2537ZM3.09091 34V29.3637H12.3636V34H3.09091ZM26.2727 7.72729C22.1618 7.72729 18.5455 11.2509 18.5455 15.2537V37.0909H34V15.2537C34 11.2509 30.3836 7.72729 26.2727 7.72729ZM21.6364 15.2537C21.6364 13.1982 23.6609 10.8182 26.2727 10.8182C28.8845 10.8182 30.9091 13.1982 30.9091 15.2537V26.2727H21.6364V15.2537ZM21.6364 34V29.3637H30.9091V34H21.6364Z" fill="#3DABC2"/>
</g>
</svg>
