<svg width="34" height="34" viewBox="0 0 34 34" fill="none" xmlns="http://www.w3.org/2000/svg">
<path id="Vector" d="M7.08111 33.9913C6.78369 33.9913 6.4721 33.8922 6.21717 33.6939C5.72146 33.3115 5.53734 32.66 5.74979 32.0793L9.64462 21.6695L0.495295 13.8231C0.042077 13.4407 -0.113717 12.8176 0.0845661 12.251C0.282849 11.6987 0.821045 11.3304 1.41589 11.3304H11.7691L15.6639 0.920598C15.8764 0.368239 16.4004 0 16.9952 0C17.5901 0 18.1141 0.368239 18.3266 0.920598L22.2356 11.3304H32.5888C33.1694 11.3304 33.7076 11.6987 33.9059 12.2369C34.1184 12.7892 33.9626 13.4124 33.5235 13.7948L24.3459 21.9952L28.2407 32.051C28.4673 32.6317 28.2832 33.2973 27.7875 33.6797C27.2918 34.0621 26.612 34.0763 26.1021 33.7081L17.0094 27.2072L7.91673 33.7081C7.67596 33.878 7.37854 33.9772 7.09528 33.9772L7.08111 33.9913ZM5.23992 14.163L12.2506 20.1682C12.7038 20.5506 12.8596 21.1879 12.6614 21.7403L10.0412 28.7227L16.1738 24.3463C16.6695 23.9922 17.321 23.9922 17.8167 24.3463L23.8785 28.6802L21.3433 22.1227C21.1309 21.5703 21.2867 20.9472 21.7257 20.5506L28.8639 14.1772H21.2442C20.6493 14.1772 20.1253 13.809 19.9128 13.2566L16.9952 5.46694L14.0777 13.2566C13.8652 13.809 13.3412 14.1772 12.7463 14.1772H5.23992V14.163Z" fill="#3DABC2"/>
</svg>
