<svg width="38" height="34" viewBox="0 0 38 34" fill="none" xmlns="http://www.w3.org/2000/svg">
<path id="Vector" d="M27.8182 9.27273C27.8182 4.15727 23.6609 0 18.5455 0C13.43 0 9.27273 4.15727 9.27273 9.27273C9.27273 14.3882 13.43 18.5455 18.5455 18.5455C23.6609 18.5455 27.8182 14.3882 27.8182 9.27273ZM18.5455 15.4545C15.13 15.4545 12.3636 12.6882 12.3636 9.27273C12.3636 5.85727 15.13 3.09091 18.5455 3.09091C21.9609 3.09091 24.7273 5.85727 24.7273 9.27273C24.7273 12.6882 21.9609 15.4545 18.5455 15.4545ZM0 17L10.8182 24.7273V34H13.9091V23.1355L1.79273 14.4809L0 17ZM35.2982 14.4809L23.1818 23.1355V34H26.2727V24.7273L37.0909 17L35.2982 14.4809Z" fill="#3DABC2"/>
</svg>
