<svg width="34" height="34" viewBox="0 0 34 34" fill="none" xmlns="http://www.w3.org/2000/svg">
<path id="Vector" d="M34 19.815C33.9717 17.52 33.1925 15.2958 31.8042 13.44C32.3567 11.2725 31.9033 8.96334 30.5433 7.15001C29.1692 5.32251 27.0017 4.23168 24.7492 4.17501C23.035 1.58251 20.145 0.0100098 17 0.0100098C13.855 0.0100098 10.965 1.59668 9.25083 4.17501C6.99833 4.23168 4.81667 5.32251 3.45667 7.16418C2.09667 8.97751 1.64333 11.2867 2.19583 13.4542C0.8075 15.2817 0.0283333 17.52 0 19.815V20.2683L5.34083 27.8333C7.96167 31.6867 12.3108 33.9958 17 33.9958C21.675 33.9958 26.0383 31.6867 28.6308 27.8617L34 20.2825V19.815ZM26.3075 26.2467C24.225 29.3208 20.74 31.1625 17 31.1625C13.26 31.1625 9.775 29.3208 7.67833 26.2183L2.86167 19.4042C2.9325 18.285 3.28667 17.1942 3.81083 16.2025L10.1433 25.2692L12.1692 23.2433L5.04333 13.0858C4.56167 11.6408 4.81667 10.0683 5.7375 8.85001C6.51667 7.81584 7.70667 7.16418 8.95333 7.03668L12.8208 21.1892L15.13 18.88L11.56 5.83251C12.75 3.97668 14.79 2.84334 17.0142 2.84334C19.2383 2.84334 21.2783 3.99084 22.4683 5.83251L18.8983 18.88L21.2075 21.1892L25.075 7.03668C26.3358 7.17834 27.5117 7.83001 28.2908 8.85001C29.2117 10.0683 29.4667 11.6408 28.985 13.0858L21.8592 23.2433L23.8992 25.2833L30.2458 16.245C30.77 17.2225 31.0958 18.2992 31.1808 19.4042L26.3358 26.2467H26.3075Z" fill="#3DABC2"/>
</svg>
