<svg width="22" height="22" viewBox="0 0 22 22" fill="none" xmlns="http://www.w3.org/2000/svg">
<g id="calendar2-check">
<path id="Vector" d="M7.3388 1.84644C6.8328 1.84644 6.42213 2.2571 6.42213 2.7631C4.39721 2.7631 2.75546 4.40485 2.75546 6.42977V15.5964C2.75546 17.6214 4.39721 19.2631 6.42213 19.2631H15.5888C17.6137 19.2631 19.2555 17.6214 19.2555 15.5964V6.42977C19.2555 4.40485 17.6137 2.7631 15.5888 2.7631C15.5888 2.2571 15.1781 1.84644 14.6721 1.84644C14.1661 1.84644 13.7555 2.2571 13.7555 2.7631H8.25547C8.25547 2.2571 7.8448 1.84644 7.3388 1.84644ZM6.42213 4.59644H15.5888C16.6017 4.59644 17.4221 5.41685 17.4221 6.42977V15.5964C17.4221 16.6094 16.6017 17.4298 15.5888 17.4298H6.42213C5.40921 17.4298 4.5888 16.6094 4.5888 15.5964V6.42977C4.5888 5.41685 5.40921 4.59644 6.42213 4.59644ZM7.3388 6.42977C6.8328 6.42977 6.42213 6.84044 6.42213 7.34644C6.42213 7.85244 6.8328 8.26311 7.3388 8.26311H14.6721C15.1781 8.26311 15.5888 7.85244 15.5888 7.34644C15.5888 6.84044 15.1781 6.42977 14.6721 6.42977H7.3388ZM13.7555 11.0131C13.5208 11.0131 13.3045 11.0919 13.1248 11.2707L11.0339 13.3909L9.83121 12.1874C9.4728 11.8299 8.89988 11.8299 8.54146 12.1874C8.18396 12.5458 8.18396 13.1471 8.54146 13.5055L10.3748 15.3389C10.7332 15.6964 11.3061 15.6964 11.6645 15.3389L14.4145 12.5889C14.772 12.2304 14.772 11.6291 14.4145 11.2707C14.2349 11.0919 13.9901 11.0131 13.7555 11.0131Z" fill="#B6D6E2"/>
</g>
</svg>
