<svg width="21" height="18" viewBox="0 0 21 18" fill="none" xmlns="http://www.w3.org/2000/svg">
<g id="2 Speech Bubbles (Chat)">
<path id="Vector" d="M8.92 16.9699C8.68 16.9899 8.44 16.9999 8.2 16.9999C7.03 16.9999 5.91999 16.7199 4.92999 16.2299L1.03999 16.7899L1.63 12.8799H1.64C1.24 11.9999 1 11.0299 1 9.99989C1 8.10989 1.76999 6.39989 3.00999 5.13989" stroke="#3DABC2" stroke-width="1.5" stroke-linecap="round" stroke-linejoin="round"/>
<g id="Group">
<path id="Vector_2" d="M9.41006 7.99997C9.41006 8.14275 9.28776 8.27997 9.11006 8.27997C8.93236 8.27997 8.81006 8.14275 8.81006 7.99997C8.81006 7.85719 8.93236 7.71997 9.11006 7.71997C9.28776 7.71997 9.41006 7.85719 9.41006 7.99997Z" fill="#3DABC2" stroke="#3DABC2"/>
<path id="Vector_3" d="M12.6103 7.99997C12.6103 8.14275 12.488 8.27997 12.3103 8.27997C12.1326 8.27997 12.0103 8.14275 12.0103 7.99997C12.0103 7.85719 12.1326 7.71997 12.3103 7.71997C12.488 7.71997 12.6103 7.85719 12.6103 7.99997Z" fill="#3DABC2" stroke="#3DABC2"/>
<path id="Vector_4" d="M15.8002 7.99997C15.8002 8.14275 15.6779 8.27997 15.5002 8.27997C15.3225 8.27997 15.2002 8.14275 15.2002 7.99997C15.2002 7.85719 15.3225 7.71997 15.5002 7.71997C15.6779 7.71997 15.8002 7.85719 15.8002 7.99997Z" fill="#3DABC2" stroke="#3DABC2"/>
</g>
<path id="Vector_5" d="M18.8699 10.88L19.4599 14.79L15.5699 14.23C14.8699 14.58 14.1099 14.82 13.2999 14.93C12.9799 14.98 12.6399 15 12.2999 15C8.31987 15 5.10986 11.87 5.10986 8C5.10986 6.07 5.89986 4.35 7.19986 3.08C8.48986 1.79 10.2999 1 12.3099 1C16.2899 1 19.4999 4.13 19.4999 8C19.4999 9.03 19.2599 10 18.8599 10.88H18.8699V10.88Z" stroke="#3DABC2" stroke-width="1.5" stroke-linecap="round" stroke-linejoin="round"/>
</g>
</svg>
