<svg xmlns="http://www.w3.org/2000/svg" className="close-search absolute top-[30px] right-[30px] cursor-pointer"
          width="52" height="52" viewBox="0 0 32 32" fill="none">
          <path
            d="M15.9986 2.60425C8.63456 2.60425 2.66522 8.57358 2.66522 15.9376C2.66522 23.3016 8.63456 29.2709 15.9986 29.2709C23.3626 29.2709 29.3319 23.3016 29.3319 15.9376C29.3319 8.57358 23.3626 2.60425 15.9986 2.60425ZM15.9986 5.27091C21.8892 5.27091 26.6652 10.0469 26.6652 15.9376C26.6652 21.8282 21.8892 26.6042 15.9986 26.6042C10.1079 26.6042 5.33189 21.8282 5.33189 15.9376C5.33189 10.0469 10.1079 5.27091 15.9986 5.27091ZM11.9986 10.6042C11.6572 10.6042 11.3012 10.7189 11.0399 10.9789C10.5199 11.5003 10.5199 12.3749 11.0399 12.8962L14.0812 15.9376L11.0399 18.9789C10.5199 19.5003 10.5199 20.3749 11.0399 20.8962C11.5612 21.4162 12.4359 21.4162 12.9572 20.8962L15.9986 17.8549L19.0399 20.8962C19.5612 21.4162 20.4359 21.4162 20.9572 20.8962C21.4772 20.3749 21.4772 19.5003 20.9572 18.9789L17.9159 15.9376L20.9572 12.8962C21.4772 12.3749 21.4772 11.5003 20.9572 10.9789C20.6959 10.7189 20.3399 10.6042 19.9986 10.6042C19.6572 10.6042 19.3012 10.7189 19.0399 10.9789L15.9986 14.0202L12.9572 10.9789C12.6959 10.7189 12.3399 10.6042 11.9986 10.6042Z"
            fill="#fff" />
        </svg>