<svg width="24" height="26" viewBox="0 0 24 26" fill="none" xmlns="http://www.w3.org/2000/svg">
<g id="geo">
<path id="Vector" d="M11.9967 0.97168C9.23573 0.97168 6.99673 3.2293 6.99673 6.01325C6.99673 8.43724 8.73273 10.464 10.9947 10.9469L10.9967 16.0964C10.9967 16.653 11.4447 17.1047 11.9967 17.1047C12.5487 17.1047 12.9967 16.653 12.9967 16.0964L12.9847 10.9419C15.2457 10.4599 16.9967 8.43724 16.9967 6.01325C16.9967 3.2293 14.7577 0.97168 11.9967 0.97168ZM11.9967 2.98831C13.6537 2.98831 14.9967 4.34247 14.9967 6.01325C14.9967 7.68403 13.6537 9.03819 11.9967 9.03819C10.3397 9.03819 8.99673 7.68403 8.99673 6.01325C8.99673 4.34247 10.3397 2.98831 11.9967 2.98831ZM11.9967 5.00494C11.4447 5.00494 10.9967 5.45666 10.9967 6.01325C10.9967 6.56984 11.4447 7.02157 11.9967 7.02157C12.5487 7.02157 12.9967 6.56984 12.9967 6.01325C12.9967 5.45666 12.5487 5.00494 11.9967 5.00494ZM15.8717 14.2693C15.6167 14.2976 15.3877 14.4297 15.2157 14.6465C14.8707 15.082 14.9407 15.7173 15.3717 16.0651C15.7947 16.4059 15.9967 16.776 15.9967 17.1047C15.9967 18.0818 14.2777 19.1213 11.9967 19.1213C9.71573 19.1213 7.99673 18.0818 7.99673 17.1047C7.99673 16.777 8.20273 16.4362 8.62173 16.0964C9.05173 15.7475 9.12374 15.1123 8.77774 14.6787C8.60474 14.4619 8.34473 14.3278 8.09073 14.3006C7.83573 14.2723 7.58673 14.346 7.37173 14.5214C6.51273 15.2171 5.99673 16.1115 5.99673 17.1047C5.99673 19.4692 8.75473 21.138 11.9967 21.138C15.2387 21.138 17.9967 19.4692 17.9967 17.1047C17.9967 16.1075 17.4867 15.1869 16.6217 14.4891C16.4057 14.3157 16.1267 14.2401 15.8717 14.2693Z" fill="black"/>
</g>
</svg>
