<svg width="22" height="22" viewBox="0 0 22 22" fill="none" xmlns="http://www.w3.org/2000/svg">
<g id="geo2">
<path id="Vector" d="M10.998 1.84644C8.46671 1.84644 6.41466 3.89885 6.41466 6.42977C6.41466 7.28777 6.81992 8.34284 7.56049 9.60968C7.80716 10.0313 8.1137 10.4475 8.41986 10.8985C8.83273 11.5072 9.26824 12.1342 9.70916 12.7034C9.80999 12.8327 9.94566 13.0133 10.0813 13.1902V15.5964C10.0813 16.1024 10.492 16.5131 10.998 16.5131C11.504 16.5131 11.9147 16.1024 11.9147 15.5964V13.1902C12.0503 13.0133 12.186 12.8327 12.2868 12.7034C12.7277 12.1351 13.1632 11.5072 13.5757 10.8985C13.8818 10.4475 14.1889 10.0313 14.4355 9.60968C15.1762 8.34284 15.5813 7.28777 15.5813 6.42977C15.5813 3.89885 13.5289 1.84644 10.998 1.84644ZM10.998 3.67977C12.5169 3.67977 13.748 4.91085 13.748 6.42977C13.748 6.8661 13.4171 7.66267 12.8313 8.66459C12.6067 9.04776 12.3712 9.47677 12.087 9.89569C11.7442 10.4008 11.3665 10.8756 10.998 11.3568C10.6295 10.8756 10.2527 10.4008 9.90899 9.89569C9.62482 9.47677 9.38924 9.04776 9.16466 8.66459C8.57909 7.66267 8.24799 6.8661 8.24799 6.42977C8.24799 4.91085 9.47907 3.67977 10.998 3.67977ZM10.998 5.5131C10.492 5.5131 10.0813 5.92377 10.0813 6.42977C10.0813 6.93577 10.492 7.34643 10.998 7.34643C11.504 7.34643 11.9147 6.93577 11.9147 6.42977C11.9147 5.92377 11.504 5.5131 10.998 5.5131ZM7.01617 12.5604C4.98511 13.2708 3.66466 14.5138 3.66466 16.0548C3.66466 18.5059 7.01287 20.1798 10.998 20.1798C14.9827 20.1798 18.3313 18.5059 18.3313 16.0548C18.3313 14.5102 16.9884 13.2699 14.9507 12.5604C14.4731 12.3936 13.9717 12.6549 13.8048 13.1324C13.6389 13.6109 13.8717 14.1124 14.3493 14.2783C15.7344 14.7614 16.498 15.4736 16.498 16.0548C16.498 17.1474 14.1009 18.3464 10.998 18.3464C7.89544 18.3464 5.49799 17.1474 5.49799 16.0548C5.49799 15.4754 6.23866 14.7614 7.61778 14.2783C8.09564 14.1114 8.3579 13.6109 8.1907 13.1324C8.0235 12.6549 7.49403 12.3927 7.01617 12.5604Z" fill="#B6D6E2"/>
</g>
</svg>
