<svg width="32" height="32" viewBox="0 0 32 32" fill="none" xmlns="http://www.w3.org/2000/svg">
<g id="water">
<path id="Vector" d="M3.88103 6.52688C3.54503 6.58714 3.24371 6.70408 3.00638 6.98514C2.53171 7.54741 2.52104 8.30541 3.17304 8.94354C4.50771 10.2503 5.9517 10.5269 7.0477 10.5269C7.96903 10.5269 9.09971 10.2775 10.0064 9.65181C10.2837 9.46021 10.7797 9.19901 11.3397 9.19354C11.9197 9.18781 12.5757 9.28341 12.965 9.56848C13.7904 10.1738 14.9037 10.5237 15.965 10.5269C17.1117 10.5302 18.2597 10.197 18.965 9.65181C19.4424 9.28248 20.0517 9.19354 20.6317 9.19354C21.2104 9.19354 21.501 9.30128 22.2144 9.73514C23.081 10.2621 24.001 10.5325 25.0064 10.5269C26.717 10.5171 27.8304 9.92781 28.965 8.77688C29.481 8.25274 29.457 7.44901 28.9224 6.94354C28.3877 6.43808 27.5957 6.36808 27.089 6.90181C27.0197 6.97581 26.6957 7.25461 26.673 7.27688C26.2784 7.66248 25.6104 7.86968 25.0064 7.86021C24.453 7.85141 23.9677 7.69434 23.589 7.44354C22.4704 6.70048 21.529 6.52674 20.381 6.52688C19.609 6.52688 18.449 6.77688 17.673 7.31848C16.6917 8.00341 15.3904 7.98581 14.5477 7.40181C13.601 6.74581 12.457 6.48754 11.3397 6.52688C10.1824 6.56754 9.28237 6.91341 8.46504 7.48514C7.76237 7.97581 6.35971 7.98528 5.58904 7.44354L4.83971 6.86021C4.45838 6.59354 4.24236 6.46194 3.88103 6.52688ZM3.88103 13.1935C3.54503 13.2538 3.24371 13.3706 3.00638 13.6518C2.53171 14.2141 2.56236 14.9721 3.21436 15.6102C4.55036 16.917 5.9517 17.1935 7.0477 17.1935C7.96903 17.1935 9.09971 16.9442 10.0064 16.3185C10.2837 16.1269 10.7797 15.8655 11.3397 15.8602C11.9197 15.8545 12.5757 15.9501 12.965 16.2351C13.7904 16.8405 14.9037 17.1903 15.965 17.1935C17.1117 17.1969 18.2597 16.8637 18.965 16.3185C19.4424 15.9491 20.0517 15.8602 20.6317 15.8602C21.2104 15.8602 21.501 15.9679 22.2144 16.4018C23.081 16.9287 24.001 17.1991 25.0064 17.1935C26.717 17.1838 27.8304 16.5945 28.965 15.4435C29.481 14.9194 29.457 14.0739 28.9224 13.5685C28.3877 13.063 27.5957 13.0347 27.089 13.5685C27.0197 13.6425 26.6957 13.9213 26.673 13.9435C26.2784 14.3291 25.6104 14.5363 25.0064 14.5269C24.453 14.5181 23.9677 14.361 23.589 14.1102C22.4704 13.3671 21.529 13.1935 20.381 13.1935C19.609 13.1935 18.449 13.4435 17.673 13.9851C16.6917 14.6701 15.3904 14.6525 14.5477 14.0685C13.601 13.4125 12.457 13.1542 11.3397 13.1935C10.1824 13.2342 9.28237 13.5801 8.46504 14.1518C7.76237 14.6425 6.35971 14.6519 5.58904 14.1102L4.83971 13.4851C4.45838 13.2186 4.24236 13.1286 3.88103 13.1935ZM3.88103 19.8602C3.54503 19.9205 3.24371 20.0373 3.00638 20.3185C2.53171 20.8807 2.56236 21.6387 3.21436 22.2769C4.55036 23.5837 5.9517 23.8602 7.0477 23.8602C7.96903 23.8602 9.09971 23.6109 10.0064 22.9851C10.2837 22.7935 10.7797 22.5323 11.3397 22.5269C11.9197 22.5211 12.5757 22.6167 12.965 22.9018C13.7904 23.5071 14.9037 23.857 15.965 23.8602C17.1117 23.8635 18.2597 23.5303 18.965 22.9851C19.4424 22.6158 20.0517 22.5269 20.6317 22.5269C21.2104 22.5269 21.501 22.6346 22.2144 23.0685C23.081 23.5954 24.001 23.8658 25.0064 23.8602C26.717 23.8505 27.8304 23.2611 28.965 22.1102C29.481 21.5861 29.457 20.7822 28.9224 20.2769C28.3877 19.7714 27.5957 19.7014 27.089 20.2351C27.0197 20.3091 26.6957 20.5879 26.673 20.6102C26.2784 20.9958 25.6104 21.203 25.0064 21.1935C24.453 21.1847 23.9677 21.0277 23.589 20.7769C22.4704 20.0338 21.529 19.8602 20.381 19.8602C19.609 19.8602 18.449 20.1102 17.673 20.6518C16.6917 21.3367 15.3904 21.3191 14.5477 20.7351C13.601 20.0791 12.457 19.8209 11.3397 19.8602C10.1824 19.9009 9.28237 20.2467 8.46504 20.8185C7.76237 21.3091 6.35971 21.3186 5.58904 20.7769L4.83971 20.1935C4.45838 19.9269 4.24236 19.7953 3.88103 19.8602Z" fill="white"/>
</g>
</svg>
