<svg width="250" height="66" viewBox="0 0 250 66" fill="none" xmlns="http://www.w3.org/2000/svg">
<g clip-path="url(#clip0_483_2867)">
<path d="M15.1311 17.6371C13.7917 20.3379 12.9503 23.1138 12.9301 25.7055C12.7282 58.7634 48.1732 50.5313 63.0284 45.6344C62.5841 45.7503 62.1264 45.8526 61.6687 45.9481C61.6283 45.9549 61.5947 45.9617 61.5543 45.9754C60.8274 46.1323 60.087 46.2687 59.3398 46.3846C59.1379 46.4187 58.936 46.446 58.734 46.4733C58.6062 46.4937 58.4783 46.5074 58.3504 46.5278C58.2831 46.5346 58.2158 46.5483 58.1552 46.5551C57.8792 46.5892 57.6032 46.6233 57.3273 46.6506C57.2734 46.6506 57.2196 46.6642 57.1657 46.6642C55.8936 46.7938 54.608 46.8757 53.3089 46.8961C53.3022 46.8961 53.2955 46.8961 53.282 46.8961C52.9926 46.8961 52.7031 46.9029 52.4137 46.9029C52.3464 46.9029 52.2791 46.9029 52.205 46.9029C51.9358 46.9029 51.6598 46.9029 51.3839 46.8893C50.7781 46.8757 50.1723 46.8552 49.5665 46.8143C49.4588 46.8143 49.3579 46.8075 49.2502 46.8006C48.8059 46.7734 48.3617 46.7393 47.9107 46.6983C47.8232 46.6915 47.7424 46.6847 47.6549 46.6711C47.2242 46.6301 46.7934 46.5824 46.3626 46.5346C46.1539 46.5074 45.9453 46.4801 45.7366 46.4528C45.6289 46.4392 45.5212 46.4255 45.4135 46.4119C45.2991 46.3982 45.1914 46.3778 45.077 46.3641C44.8482 46.33 44.6126 46.2959 44.3837 46.255C44.276 46.2346 44.1683 46.2209 44.0606 46.2005C43.8991 46.1732 43.7375 46.1459 43.576 46.1118C43.3943 46.0777 43.2058 46.0436 43.0241 46.0095C42.9769 46.0027 42.9366 45.989 42.8895 45.9822C41.3077 45.6753 39.7596 45.2934 38.2518 44.8432C38.2518 44.8432 38.2384 44.8432 38.2249 44.8364C37.7807 44.7068 37.3499 44.5636 36.9124 44.4204C36.8249 44.3931 36.7374 44.3658 36.6499 44.3317C36.5153 44.284 36.3739 44.2362 36.2393 44.1885C36.1316 44.1544 36.0306 44.1134 35.9229 44.0725C35.2095 43.8134 34.5027 43.5405 33.8162 43.2473C33.6546 43.1791 33.4931 43.104 33.3315 43.0358C32.7863 42.7971 32.2546 42.5448 31.7363 42.2856C31.6555 42.2447 31.5748 42.2038 31.494 42.1628C31.3392 42.0878 31.1911 42.006 31.0363 41.9241C30.9555 41.8832 30.868 41.8355 30.7872 41.7945C30.5719 41.6786 30.3497 41.5558 30.1411 41.4331C30.0468 41.3785 29.9593 41.3308 29.8651 41.2762C29.6363 41.1466 29.4141 41.0102 29.1987 40.8806C28.5526 40.485 27.9266 40.069 27.3276 39.6393C27.2266 39.5711 27.1324 39.4961 27.0381 39.4211C26.7823 39.2301 26.5333 39.0391 26.2843 38.8414C26.2708 38.8277 26.2573 38.8209 26.2371 38.8073C26.0352 38.6436 25.8333 38.4731 25.6314 38.3094C25.591 38.2753 25.5506 38.2412 25.5102 38.2071C25.3621 38.0843 25.2208 37.9547 25.0794 37.8251C25.0054 37.7569 24.9313 37.6955 24.8573 37.6273C24.6486 37.4364 24.4467 37.2386 24.2515 37.0408C24.2179 37.0135 24.1909 36.9794 24.1573 36.9521C23.9486 36.7407 23.74 36.5225 23.5448 36.2974C23.4977 36.2428 23.4505 36.1883 23.4034 36.1337C23.0063 35.6904 22.6361 35.2334 22.2928 34.7628C22.2592 34.7151 22.2255 34.6742 22.1919 34.6264C22.064 34.4491 21.9428 34.2718 21.8217 34.0944C21.7745 34.033 21.7342 33.9648 21.6938 33.8966C21.3909 33.4329 21.1082 32.9554 20.8524 32.4712C20.8389 32.4439 20.8255 32.4235 20.812 32.3962C20.5495 31.8847 20.3139 31.3595 20.1053 30.8207C20.0783 30.7457 20.0514 30.6775 20.0245 30.6024C19.9505 30.4046 19.8831 30.2 19.8158 30.0023C19.8158 29.9886 19.8091 29.975 19.8024 29.9613C19.7149 29.6953 19.6408 29.4293 19.5668 29.1565C19.5533 29.0952 19.5331 29.0269 19.5197 28.9656C19.4591 28.7337 19.412 28.495 19.3649 28.2631C19.3649 28.2358 19.3514 28.2085 19.3514 28.1812C19.2841 27.8334 19.2302 27.4856 19.1831 27.1309C19.1831 27.1241 19.1831 27.1173 19.1831 27.1104C19.1495 26.8172 19.1226 26.5239 19.1091 26.2238C19.1091 26.1283 19.1091 26.0328 19.0956 25.9374C19.0889 25.7055 19.0822 25.4736 19.0822 25.2349C19.0822 25.1462 19.0822 25.0575 19.0822 24.9621C19.0822 24.6551 19.1024 24.3414 19.1293 24.0209C19.1293 24.0209 19.1293 24.0209 19.1293 24.014C19.1495 23.7617 19.1764 23.5093 19.2101 23.257C19.2168 23.1888 19.2235 23.1274 19.2302 23.0592C19.2572 22.8409 19.2976 22.6295 19.3312 22.4113C19.3514 22.309 19.3649 22.2067 19.3851 22.0975C19.4456 21.777 19.5129 21.4496 19.6005 21.1222C20.213 18.6465 21.2563 16.4026 22.6092 14.377C19.9639 15.0317 17.4398 16.1366 15.158 17.6371H15.1311Z" fill="url(#paint0_linear_483_2867)"/>
<path d="M63.2438 45.5595C63.1832 45.5799 63.1293 45.6004 63.0688 45.614C63.0553 45.614 63.0418 45.6209 63.0284 45.6277C48.18 50.5247 12.7349 58.7568 12.9301 25.6988C12.9436 23.1139 13.7849 20.3312 15.1311 17.6304C13.2734 18.858 11.5772 20.3448 10.1031 22.0636C6.83862 27.2333 4.94723 33.3784 4.94723 39.9737C4.94723 40.4443 4.96742 40.9149 4.98761 41.3855C5.00107 41.706 5.01454 42.0266 5.04146 42.3403C5.06165 42.6472 5.08858 42.9541 5.12223 43.261C5.15589 43.5748 5.18281 43.8885 5.2232 44.2022C5.26358 44.5092 5.30397 44.8093 5.35108 45.1093C5.3982 45.4163 5.44532 45.7232 5.49916 46.0301C5.55301 46.3302 5.62032 46.6303 5.6809 46.9235C5.74148 47.2236 5.80205 47.5237 5.87609 47.8238C5.9434 48.1171 6.02418 48.4104 6.10495 48.7036C6.18572 48.9969 6.25976 49.2902 6.34726 49.5835C6.43476 49.8767 6.529 50.1632 6.62323 50.4496C6.71746 50.7361 6.80496 51.0225 6.90593 51.3022C7.01362 51.5954 7.12805 51.8819 7.23574 52.1684C7.34344 52.4343 7.43767 52.7072 7.5521 52.9731C7.69344 53.3073 7.84153 53.6279 7.99634 53.9553C8.09057 54.1599 8.17807 54.3713 8.27904 54.5759C8.41365 54.7328 8.54827 54.8828 8.68289 55.0329C8.79732 55.1556 8.91174 55.2852 9.02617 55.408C9.18771 55.5785 9.34925 55.749 9.51079 55.9195C9.63195 56.0423 9.74638 56.1582 9.86753 56.281C10.0223 56.4379 10.1772 56.5879 10.332 56.7448C10.3522 56.7584 10.3656 56.7789 10.3858 56.7925C10.5002 56.9016 10.6147 57.0039 10.7291 57.1131C10.8637 57.2426 11.0051 57.3654 11.1397 57.495C11.207 57.5564 11.281 57.6178 11.3483 57.686C11.5301 57.8428 11.7118 57.9997 11.8935 58.1566C11.9407 58.1975 11.981 58.2384 12.0282 58.2725C12.1022 58.3339 12.1762 58.3953 12.2503 58.4498C12.3714 58.5521 12.4926 58.6476 12.6205 58.7499C12.7618 58.8659 12.9099 58.9818 13.0513 59.0978C13.2195 59.2274 13.3945 59.3569 13.5695 59.4865C13.7244 59.6025 13.8792 59.7184 14.034 59.8275C14.209 59.9503 14.3773 60.0731 14.5523 60.1958C14.7138 60.305 14.8821 60.4209 15.0436 60.53C15.1782 60.6187 15.3196 60.7074 15.4542 60.796C15.5148 60.8369 15.5821 60.8779 15.6427 60.9188C15.7907 61.0143 15.9388 61.1029 16.0936 61.1984C16.2148 61.2734 16.336 61.3485 16.4638 61.4235C16.5715 61.4917 16.686 61.5531 16.7937 61.6145C16.9417 61.6963 17.0831 61.7781 17.2312 61.86C17.3254 61.9146 17.4196 61.9691 17.5206 62.0237C17.6687 62.1055 17.8235 62.1874 17.9783 62.2624C18.2004 62.3783 18.4293 62.5011 18.6581 62.6102C18.8331 62.6989 19.0081 62.7807 19.1899 62.8626C19.4053 62.9649 19.6206 63.0672 19.8428 63.1627C19.9235 63.1968 20.0043 63.2309 20.0918 63.2718C20.2062 63.3195 20.3207 63.3673 20.4351 63.415C20.6236 63.4969 20.8053 63.5719 20.9938 63.6469C21.1082 63.6947 21.2226 63.7356 21.3438 63.7833C21.4649 63.8311 21.5793 63.872 21.7005 63.9197C21.862 63.9811 22.0169 64.0357 22.1784 64.097C22.2996 64.138 22.4207 64.1857 22.5419 64.2266C22.6899 64.2744 22.838 64.3289 22.9861 64.3767C23.1275 64.4244 23.2688 64.4653 23.4102 64.5131C23.5246 64.5472 23.639 64.5881 23.7467 64.6222C23.9284 64.6768 24.1169 64.7313 24.2986 64.7791C24.4804 64.8336 24.6621 64.8814 24.8506 64.9291C24.891 64.9428 24.9313 64.9496 24.9717 64.9632C25.1938 65.0178 25.416 65.0723 25.6448 65.1269C25.8602 65.1747 26.0756 65.2292 26.291 65.277C26.5266 65.3247 26.7689 65.3724 27.0045 65.4202C27.1795 65.4543 27.3612 65.4884 27.5362 65.5225C27.6574 65.543 27.7718 65.5634 27.893 65.5771C28.0612 65.6043 28.2295 65.6316 28.391 65.6521C28.5324 65.6725 28.667 65.693 28.8084 65.7135C28.9497 65.7339 29.0911 65.7476 29.2391 65.768C29.4343 65.7885 29.6363 65.8089 29.8315 65.8294C29.9257 65.8362 30.0199 65.8499 30.1142 65.8567C30.2622 65.8703 30.4103 65.884 30.5651 65.8976C30.8209 65.9181 31.0767 65.9317 31.3325 65.9454C31.3863 65.9454 31.4334 65.9522 31.4873 65.9522C31.6219 65.959 31.7565 65.9658 31.8911 65.9726C32.3354 65.9931 32.7729 65.9999 33.2238 65.9999C33.6748 65.9999 34.0854 65.9931 34.5095 65.9726C34.7114 65.9658 34.9133 65.9522 35.1152 65.9385C35.3374 65.9249 35.5595 65.9181 35.7816 65.8976C35.9903 65.884 36.1922 65.8567 36.4008 65.8362C36.6162 65.8158 36.8316 65.8021 37.047 65.7748C37.2355 65.7544 37.4239 65.7271 37.6124 65.6998C37.7336 65.6862 37.848 65.6657 37.9691 65.6521C38.0768 65.6384 38.1913 65.6248 38.299 65.6043C38.5144 65.5702 38.723 65.5293 38.9384 65.4952C39.1336 65.4611 39.3355 65.427 39.5307 65.3929C39.7663 65.3452 40.0019 65.2906 40.2375 65.2429C40.4057 65.2088 40.5807 65.1747 40.749 65.1337C40.9981 65.0723 41.2404 65.011 41.4894 64.9428C41.6442 64.9018 41.799 64.8677 41.9471 64.8268C42.2029 64.7586 42.4519 64.6768 42.701 64.6018C42.8423 64.5608 42.9837 64.5199 43.125 64.479C43.3875 64.3971 43.65 64.3017 43.9126 64.213C44.0404 64.1721 44.1616 64.1311 44.2895 64.0834C44.5722 63.9811 44.8482 63.8788 45.1241 63.7697C45.2251 63.7288 45.3328 63.6947 45.4337 63.6537C45.7232 63.5378 46.0059 63.415 46.2953 63.2923C46.3828 63.2513 46.4703 63.2172 46.5578 63.1831C46.854 63.0535 47.1434 62.9171 47.4328 62.7739C47.5069 62.7398 47.5876 62.7057 47.6617 62.6648C47.9713 62.5147 48.2675 62.3579 48.5704 62.201C48.6242 62.1737 48.6848 62.1464 48.7386 62.1123C49.055 61.9418 49.3713 61.7645 49.681 61.5872C49.7213 61.5667 49.755 61.5463 49.7954 61.5258C50.105 61.3416 50.4146 61.1575 50.7175 60.9665C50.7512 60.9461 50.7916 60.9256 50.8252 60.8983C51.1483 60.6937 51.4646 60.4823 51.781 60.2709C51.7945 60.2572 51.8147 60.2504 51.8349 60.2368C52.1512 60.0185 52.4676 59.7934 52.7772 59.5684C52.7906 59.5616 52.8041 59.5479 52.8176 59.5411C53.1339 59.3092 53.4435 59.0705 53.7464 58.825C53.7532 58.825 53.7666 58.8113 53.7734 58.8045C54.083 58.559 54.3859 58.3066 54.6888 58.0474C54.6888 58.0474 54.6955 58.0406 54.7022 58.0338C55.0051 57.7746 55.308 57.5086 55.5974 57.2358C58.8417 54.2417 61.5005 50.6133 63.3784 46.5348C63.5467 46.1665 63.7082 45.7982 63.8697 45.4231C63.8697 45.4231 63.8697 45.4231 63.8697 45.4163C63.6813 45.4708 63.4793 45.5117 63.2842 45.5595H63.2438Z" fill="url(#paint1_linear_483_2867)"/>
<path d="M28.4718 8.03423C26.2304 9.85525 24.1909 11.9559 22.589 14.3703C23.1207 14.2407 23.6525 14.1316 24.1909 14.0361C24.2313 14.0293 24.2717 14.0224 24.3121 14.0156C25.3823 13.8315 26.4727 13.7292 27.5631 13.6951C27.6372 13.6951 27.7112 13.6951 27.7785 13.6951C28.3237 13.6814 28.8689 13.6883 29.4141 13.7155C29.4276 13.7155 29.4411 13.7155 29.4545 13.7155C29.9661 13.7428 30.4776 13.7906 30.9892 13.8451C31.0969 13.8588 31.2046 13.8724 31.319 13.886C31.8507 13.9542 32.3757 14.0361 32.9075 14.1452C32.9344 14.1452 32.9546 14.1589 32.9815 14.1589C33.4796 14.2612 33.971 14.3839 34.4691 14.5135C34.597 14.5476 34.7316 14.5885 34.8595 14.6226C35.3777 14.7727 35.896 14.9364 36.4076 15.1205C41.8327 17.0984 46.127 20.8564 48.88 25.5078C48.503 24.1233 48.0117 22.7797 47.4059 21.4839C47.002 20.6245 46.5443 19.7856 46.0463 18.974C45.2924 17.76 44.4376 16.6142 43.475 15.5434C42.8356 14.8341 42.1558 14.152 41.4288 13.5177C39.2548 11.6081 36.7037 10.0667 33.8364 9.02317C33.3787 8.85267 32.9142 8.70944 32.4565 8.57303C32.3286 8.53211 32.2007 8.49801 32.0729 8.46391C31.7228 8.36842 31.3661 8.27294 31.0161 8.1911C30.8949 8.16382 30.7738 8.13653 30.6459 8.10925C30.1949 8.01377 29.744 7.92511 29.293 7.8569C29.2863 7.8569 29.2728 7.8569 29.2661 7.8569C29.2257 7.8569 29.1853 7.85008 29.1449 7.84326C28.9228 7.90464 28.7074 7.97285 28.4853 8.04105L28.4718 8.03423Z" fill="url(#paint2_linear_483_2867)"/>
<path d="M37.8547 6.64305C35.2364 6.64305 32.6988 6.96361 30.2555 7.54333C30.7267 7.55015 31.1911 7.57743 31.6623 7.61835C31.7228 7.61835 31.7767 7.63199 31.8373 7.63199C32.2209 7.6661 32.5979 7.71384 32.9815 7.7684C33.0354 7.77522 33.0892 7.78204 33.1363 7.78886C33.5671 7.85706 33.9979 7.93891 34.4287 8.03439C34.4287 8.03439 34.4421 8.03439 34.4489 8.03439C34.846 8.12305 35.2431 8.22536 35.6335 8.3413C35.7479 8.37541 35.8556 8.40951 35.9701 8.44361C36.273 8.53909 36.5758 8.63458 36.872 8.7437C36.9864 8.78462 37.1009 8.82555 37.222 8.86647C37.6191 9.01651 38.0163 9.17338 38.4134 9.35071C38.9855 9.60988 39.5442 9.88951 40.0827 10.1896C41.1596 10.7966 42.1692 11.4855 43.1048 12.2493C44.0404 13.0132 44.8953 13.8521 45.6761 14.7456C46.8405 16.0892 47.8299 17.576 48.6242 19.1583C48.5165 18.6263 48.3886 18.0943 48.2405 17.576C48.2069 17.4464 48.1665 17.3168 48.1261 17.1804C47.978 16.6893 47.8232 16.2051 47.6415 15.7277C47.628 15.7004 47.6213 15.6663 47.6078 15.639C47.4059 15.1207 47.1838 14.6092 46.9415 14.1045C46.9011 14.0158 46.854 13.9271 46.8136 13.8385C46.5713 13.3542 46.3222 12.87 46.0463 12.4062C46.0463 12.3926 46.0328 12.3857 46.0261 12.3721C45.7232 11.8674 45.4001 11.3695 45.0568 10.8921C45.0299 10.858 45.0097 10.8239 44.9828 10.7898C43.926 9.32343 42.6808 7.98665 41.2606 6.82038C40.1432 6.70443 39.0057 6.63623 37.8547 6.63623V6.64305Z" fill="url(#paint3_linear_483_2867)"/>
<path d="M17.285 13.9679C14.4782 16.2458 12.0484 18.9876 10.1031 22.0704C11.5772 20.3517 13.2734 18.858 15.1311 17.6372C17.4129 16.1367 19.9303 15.0318 22.5823 14.3771C24.1909 11.9627 26.2304 9.86203 28.4651 8.04102C24.339 9.28231 20.5562 11.3148 17.285 13.9747V13.9679Z" fill="#04C3EB"/>
<path d="M31.7434 0C20.8932 0.286452 5.26398 5.5108 0.619646 25.6443C-0.410185 30.1184 0.0273248 36.0453 0.64657 39.0939C0.673494 39.2372 0.713879 39.3804 0.740803 39.5236C0.740803 39.4077 0.747534 39.2985 0.754265 39.1894C0.821574 37.2456 0.956192 35.3701 1.16485 33.5968C1.31966 32.3009 1.50813 31.0528 1.73025 29.8456C2.34276 26.5173 3.20432 23.5232 4.288 20.8496C4.38223 20.6246 4.47647 20.3995 4.57743 20.1744C6.75825 15.0592 9.74678 11.1444 13.2738 8.29348C18.1268 4.36499 23.9827 2.44167 30.0944 2.19614C30.5521 2.17567 31.0165 2.16885 31.4742 2.16885C34.0925 2.16885 41.2812 3.44425 41.2812 3.44425C41.2812 3.44425 39.06 3.28056 35.7214 3.56701C32.7396 3.81937 28.8693 4.43319 24.8712 5.83135C20.7922 7.25679 16.5989 9.50749 13.0988 13.0404C9.04676 17.1258 5.92361 22.9298 5.02167 31.1619C4.98802 31.4757 4.96782 31.8099 4.9409 32.1372C4.71205 34.7971 4.69186 37.6958 4.95436 40.8672C4.95436 40.8809 4.96109 40.8877 4.96782 40.8945C4.96782 41.065 4.98802 41.2287 4.99475 41.3924C4.97455 40.9218 4.95436 40.458 4.95436 39.9806C4.95436 33.3853 6.84575 27.2403 10.1103 22.0705C12.0555 18.9877 14.4854 16.2459 17.2921 13.968C20.5634 11.3081 24.3529 9.2756 28.4722 8.03431C28.6943 7.96611 28.9097 7.8979 29.1318 7.83652C29.1318 7.83652 29.1386 7.83652 29.1453 7.83652C29.502 7.73422 29.8588 7.64555 30.2223 7.55689C30.2357 7.55689 30.2424 7.55689 30.2559 7.55007C32.6992 6.96352 35.2368 6.64979 37.8551 6.64979C39.0061 6.64979 40.1369 6.71799 41.261 6.83394C41.7254 6.88168 42.1831 6.94306 42.6408 7.01126C42.7754 7.03172 42.91 7.05219 43.0447 7.07947C43.3745 7.13403 43.7043 7.18859 44.0274 7.24997C44.1687 7.27726 44.3101 7.30454 44.4514 7.33864C44.788 7.40684 45.1178 7.48186 45.4543 7.56371C45.5688 7.59099 45.6832 7.61827 45.7976 7.64555C46.2351 7.75468 46.6726 7.87062 47.1034 8.00021C47.5813 8.14343 48.0525 8.29348 48.5236 8.45717C48.8265 8.55947 49.1227 8.6686 49.4188 8.78454C50.6371 9.24832 51.8218 9.78712 52.9661 10.3873C53.1074 10.4623 53.242 10.5374 53.3766 10.6124C53.9757 10.9398 54.568 11.2876 55.1469 11.6491C55.2815 11.7309 55.4094 11.8128 55.544 11.9014C56.6209 12.5971 57.6642 13.361 58.6469 14.1726C52.7035 5.59264 42.8697 0 31.7434 0Z" fill="url(#paint4_linear_483_2867)"/>
<path d="M31.4738 2.16211C31.0094 2.16211 30.5517 2.16893 30.094 2.18939C23.9756 2.43492 18.1264 4.35824 13.2734 8.28674C9.75311 11.1376 6.76458 15.0525 4.57703 20.1677C4.4828 20.3928 4.38183 20.611 4.2876 20.8429C3.20392 23.5165 2.34236 26.5106 1.72985 29.8389C1.50773 31.0461 1.31926 32.2942 1.16445 33.59C0.955792 35.3633 0.821174 37.2389 0.753864 39.1827C0.908676 40.0693 1.09714 40.956 1.31926 41.8426C1.37984 42.0404 1.43369 42.2382 1.49427 42.436C1.56831 42.6747 1.64235 42.9066 1.72312 43.1453C1.87793 43.6159 2.0462 44.0797 2.22121 44.5366C2.23467 44.5639 2.2414 44.5912 2.25486 44.6185C2.32217 44.7821 2.38948 44.9458 2.45679 45.1095C2.60487 45.4778 2.75968 45.8393 2.92122 46.1939C3.00872 46.3849 3.0895 46.5759 3.18373 46.76C3.18373 46.76 3.18373 46.7737 3.19046 46.7805C3.352 47.1283 3.52027 47.4625 3.69528 47.8035C3.73566 47.8786 3.76932 47.9536 3.80297 48.0286C3.89048 48.1923 3.97125 48.3492 4.05875 48.5128C4.2876 48.9289 4.52318 49.3449 4.7655 49.7541C4.8328 49.8701 4.90684 49.986 4.98089 50.102C4.98089 50.1156 4.99435 50.1224 5.00108 50.1361C5.06166 50.2384 5.1357 50.3339 5.19627 50.4362C5.3982 50.7567 5.60013 51.0773 5.80879 51.3842C5.86264 51.466 5.91648 51.5479 5.97033 51.6229C6.03764 51.7184 6.10495 51.807 6.17226 51.9025C6.42803 52.264 6.69054 52.6255 6.95978 52.9801C7.02035 53.062 7.08766 53.1438 7.14824 53.2257C7.16844 53.2529 7.18863 53.2734 7.20882 53.3007C7.53864 53.7235 7.88191 54.1396 8.23192 54.5488C8.24538 54.5624 8.25884 54.5761 8.26558 54.5897C8.16461 54.3851 8.08384 54.1737 7.98961 53.9691C7.84153 53.6417 7.68672 53.3143 7.54537 52.987C7.43094 52.721 7.33671 52.4482 7.22901 52.1822C7.11459 51.8957 7.00016 51.6093 6.8992 51.316C6.79823 51.0364 6.71073 50.7499 6.6165 50.4634C6.52227 50.177 6.42803 49.8905 6.34053 49.5973C6.25303 49.304 6.17899 49.0107 6.09822 48.7175C6.01745 48.4242 5.93668 48.1309 5.86937 47.8376C5.79533 47.5375 5.73475 47.2374 5.67417 46.9374C5.61359 46.6373 5.54628 46.344 5.49243 46.0439C5.43859 45.737 5.39147 45.4301 5.34435 45.1232C5.29724 44.8231 5.25012 44.5162 5.21647 44.2161C5.17608 43.9023 5.14916 43.5886 5.1155 43.2749C5.08858 42.9679 5.05492 42.661 5.03473 42.3541C5.01454 42.0336 4.99435 41.7198 4.98089 41.3993C4.97415 41.2288 4.96069 41.0651 4.95396 40.9014C4.95396 40.8878 4.94723 40.8809 4.9405 40.8741C4.67799 37.6959 4.69819 34.804 4.92704 32.1441C4.95396 31.8236 4.97415 31.4894 5.00781 31.1688C5.90975 22.9367 9.0329 17.1327 13.0849 13.0473C16.585 9.51439 20.7851 7.26369 24.8573 5.83825C28.8555 4.44009 32.7258 3.82626 35.7076 3.57391C39.0461 3.28746 41.2673 3.45115 41.2673 3.45115C41.2673 3.45115 34.0787 2.17575 31.4603 2.17575L31.4738 2.16211Z" fill="url(#paint5_linear_483_2867)"/>
<path d="M10.1031 22.0702C11.5772 20.3515 13.2734 18.8579 15.1311 17.637C15.1311 17.637 15.8177 15.9456 17.0629 14.1587C14.3503 16.4026 11.9945 19.0761 10.1031 22.0771V22.0702Z" fill="#00AFDF"/>
<path d="M73.7844 15.98C73.7844 15.6595 74.0402 15.3662 74.3902 15.3662H81.6596C85.4356 15.3662 88.3568 17.9375 88.3568 21.3203C88.3568 23.7961 86.3578 25.7262 84.8635 26.4355C86.5462 26.9812 88.9896 28.7204 88.9896 31.6804C88.9896 35.2815 85.9404 37.8868 82.0702 37.8868H74.3902C74.0402 37.8868 73.7844 37.6004 73.7844 37.273V15.98ZM81.2759 24.826C82.8981 24.826 84.0087 23.5369 84.0087 21.9342C84.0087 20.3314 82.8981 19.1992 81.2759 19.1992H77.8768V24.826H81.2759ZM81.7202 34.0879C83.3087 34.0879 84.5808 32.833 84.5808 31.162C84.5808 29.491 82.9923 28.3657 81.3432 28.3657H77.8835V34.0947H81.7269L81.7202 34.0879Z" fill="#D6E8EF"/>
<path d="M93.506 15.98C93.506 15.6595 93.7618 15.3662 94.1118 15.3662H97.033C97.3494 15.3662 97.6388 15.6527 97.6388 15.98V34.0265H105.736C106.086 34.0265 106.342 34.313 106.342 34.6404V37.2798C106.342 37.6004 106.086 37.8936 105.736 37.8936H94.1185C93.7685 37.8936 93.5127 37.6072 93.5127 37.2798V15.9869L93.506 15.98Z" fill="#D6E8EF"/>
<path d="M108.617 15.98C108.617 15.6595 108.9 15.3662 109.223 15.3662H112.238C112.588 15.3662 112.844 15.6527 112.844 15.98V29.1364C112.844 31.8713 114.688 34.0265 117.448 34.0265C120.208 34.0265 122.086 31.8713 122.086 29.1705V15.98C122.086 15.6595 122.341 15.3662 122.691 15.3662H125.707C126.023 15.3662 126.313 15.6527 126.313 15.98V29.3615C126.313 34.2516 122.469 38.2074 117.455 38.2074C112.44 38.2074 108.63 34.2516 108.63 29.3615V15.98H108.617Z" fill="#D6E8EF"/>
<path d="M131.785 15.98C131.785 15.6595 132.041 15.3662 132.391 15.3662H145.314C145.664 15.3662 145.92 15.6527 145.92 15.98V18.6195C145.92 18.94 145.664 19.2333 145.314 19.2333H135.918V24.5054H143.759C144.075 24.5054 144.365 24.7919 144.365 25.1192V27.786C144.365 28.1406 144.082 28.3998 143.759 28.3998H135.918V34.0265H145.314C145.664 34.0265 145.92 34.313 145.92 34.6404V37.2798C145.92 37.6004 145.664 37.8936 145.314 37.8936H132.391C132.041 37.8936 131.785 37.6072 131.785 37.2798V15.9869V15.98Z" fill="#D6E8EF"/>
<path d="M148.7 16.1435C148.572 15.6934 148.827 15.3728 149.272 15.3728H152.193C152.449 15.3728 152.698 15.5979 152.765 15.8229L156.063 28.6587H156.191L161.239 15.4069C161.3 15.2159 161.461 15.0522 161.778 15.0522H162.35C162.666 15.0522 162.828 15.2159 162.888 15.4069L167.97 28.6587H168.098L171.336 15.8229C171.396 15.5979 171.652 15.3728 171.908 15.3728H174.829C175.273 15.3728 175.529 15.6934 175.401 16.1435L169.404 37.757C169.343 38.0162 169.088 38.2071 168.832 38.2071H168.327C168.044 38.2071 167.849 38.0435 167.788 37.8525L162.108 23.2775H161.946L156.326 37.8525C156.232 38.0435 156.104 38.2071 155.787 38.2071H155.282C155.027 38.2071 154.778 38.0162 154.71 37.757L148.713 16.1435H148.7Z" fill="white"/>
<path d="M175.011 37.0545L184.885 15.4069C184.979 15.2159 185.141 15.0522 185.424 15.0522H185.74C186.056 15.0522 186.184 15.2159 186.278 15.4069L196.058 37.0545C196.247 37.4706 195.998 37.8934 195.52 37.8934H192.76C192.282 37.8934 192.06 37.7024 191.838 37.2523L190.283 33.7808H180.793L179.238 37.2523C179.11 37.5729 178.827 37.8934 178.316 37.8934H175.556C175.078 37.8934 174.829 37.4774 175.017 37.0545H175.011ZM188.722 30.2001L185.545 23.1207H185.45L182.341 30.2001H188.722Z" fill="white"/>
<path d="M201.466 18.8671H196.606C196.256 18.8671 196 18.5807 196 18.2533V15.6138C196 15.2933 196.256 15 196.606 15H210.478C210.828 15 211.084 15.2865 211.084 15.6138V18.2533C211.084 18.5738 210.828 18.8671 210.478 18.8671H205.618V36.9136C205.618 37.2342 205.336 37.5274 205.013 37.5274H202.058C201.741 37.5274 201.452 37.241 201.452 36.9136V18.8671H201.466Z" fill="white"/>
<path d="M213.162 15.98C213.162 15.6595 213.417 15.3662 213.767 15.3662H226.691C227.041 15.3662 227.297 15.6527 227.297 15.98V18.6195C227.297 18.94 227.041 19.2333 226.691 19.2333H217.294V24.5054H225.136C225.452 24.5054 225.742 24.7919 225.742 25.1192V27.786C225.742 28.1406 225.459 28.3998 225.136 28.3998H217.294V34.0265H226.691C227.041 34.0265 227.297 34.313 227.297 34.6404V37.2798C227.297 37.6004 227.041 37.8936 226.691 37.8936H213.767C213.417 37.8936 213.162 37.6072 213.162 37.2798V15.9869V15.98Z" fill="white"/>
<path d="M231.914 15.98C231.914 15.6595 232.17 15.3662 232.52 15.3662H241.6C245.409 15.3662 248.519 18.4558 248.519 22.282C248.519 25.242 246.581 27.6564 243.821 28.7817L248.169 36.9524C248.391 37.3685 248.169 37.8868 247.631 37.8868H244.299C244.016 37.8868 243.855 37.7231 243.794 37.6004L239.574 29.075H236.047V37.2798C236.047 37.6004 235.764 37.8936 235.441 37.8936H232.52C232.17 37.8936 231.914 37.6072 231.914 37.2798V15.9869V15.98ZM241.25 25.6308C242.933 25.6308 244.393 24.1508 244.393 22.3502C244.393 20.6451 242.933 19.2333 241.25 19.2333H236.074V25.6376H241.25V25.6308Z" fill="white"/>
<path d="M208.528 44.624V45.98H206.296V53H204.616V45.98H202.384V44.624H208.528ZM214.674 53L212.826 49.736H212.034V53H210.354V44.624H213.498C214.146 44.624 214.698 44.74 215.154 44.972C215.61 45.196 215.95 45.504 216.174 45.896C216.406 46.28 216.522 46.712 216.522 47.192C216.522 47.744 216.362 48.244 216.042 48.692C215.722 49.132 215.246 49.436 214.614 49.604L216.618 53H214.674ZM212.034 48.476H213.438C213.894 48.476 214.234 48.368 214.458 48.152C214.682 47.928 214.794 47.62 214.794 47.228C214.794 46.844 214.682 46.548 214.458 46.34C214.234 46.124 213.894 46.016 213.438 46.016H212.034V48.476ZM223.777 51.404H220.441L219.889 53H218.125L221.137 44.612H223.093L226.105 53H224.329L223.777 51.404ZM223.321 50.06L222.109 46.556L220.897 50.06H223.321ZM235.355 44.624L232.283 53H230.243L227.171 44.624H228.971L231.275 51.284L233.567 44.624H235.355ZM238.642 45.98V48.08H241.462V49.412H238.642V51.632H241.822V53H236.962V44.612H241.822V45.98H238.642ZM245.629 51.668H248.389V53H243.949V44.624H245.629V51.668Z" fill="white"/>
</g>
<defs>
<linearGradient id="paint0_linear_483_2867" x1="12.9301" y1="32.3143" x2="63.0284" y2="32.3143" gradientUnits="userSpaceOnUse">
<stop stop-color="#1376BD"/>
<stop offset="1" stop-color="#00BEE5"/>
</linearGradient>
<linearGradient id="paint1_linear_483_2867" x1="4.94723" y1="41.822" x2="63.8294" y2="41.822" gradientUnits="userSpaceOnUse">
<stop stop-color="#105C93"/>
<stop offset="1" stop-color="#0E93D0"/>
</linearGradient>
<linearGradient id="paint2_linear_483_2867" x1="22.5823" y1="16.6755" x2="48.8732" y2="16.6755" gradientUnits="userSpaceOnUse">
<stop stop-color="#93E4FF"/>
<stop offset="1" stop-color="#8DE3FF"/>
</linearGradient>
<linearGradient id="paint3_linear_483_2867" x1="30.2555" y1="12.9041" x2="48.6107" y2="12.9041" gradientUnits="userSpaceOnUse">
<stop stop-color="#93E4FF"/>
<stop offset="1" stop-color="#8DE3FF"/>
</linearGradient>
<linearGradient id="paint4_linear_483_2867" x1="3.34567" y1="27.1721" x2="55.6016" y2="0.143956" gradientUnits="userSpaceOnUse">
<stop stop-color="#11588E"/>
<stop offset="0.62" stop-color="#16A0D0"/>
<stop offset="1" stop-color="#1AC9F5"/>
</linearGradient>
<linearGradient id="paint5_linear_483_2867" x1="7.91557" y1="34.3607" x2="35.5701" y2="4.33261" gradientUnits="userSpaceOnUse">
<stop stop-color="#00C0E7"/>
<stop offset="0.48" stop-color="#3BD2FF"/>
<stop offset="1" stop-color="#66EFFF"/>
</linearGradient>
<clipPath id="clip0_483_2867">
<rect width="250" height="66" fill="white"/>
</clipPath>
</defs>
</svg>
