<svg width="250" height="66" viewBox="0 0 250 66" fill="none" xmlns="http://www.w3.org/2000/svg">
<path d="M15.1895 17.6376C13.8446 20.3384 12.9999 23.1143 12.9796 25.706C12.7769 58.7641 48.3643 50.532 63.2791 45.635C62.8331 45.751 62.3735 45.8533 61.914 45.9487C61.8734 45.9556 61.8396 45.9624 61.7991 45.976C61.0692 46.1329 60.3259 46.2693 59.5757 46.3852C59.373 46.4193 59.1703 46.4466 58.9675 46.4739C58.8391 46.4944 58.7107 46.508 58.5823 46.5285C58.5147 46.5353 58.4472 46.5489 58.3863 46.5558C58.1093 46.5899 57.8322 46.624 57.5551 46.6512C57.501 46.6512 57.447 46.6649 57.3929 46.6649C56.1157 46.7945 54.8249 46.8763 53.5206 46.8968C53.5138 46.8968 53.5071 46.8968 53.4936 46.8968C53.203 46.8968 52.9124 46.9036 52.6218 46.9036C52.5542 46.9036 52.4866 46.9036 52.4123 46.9036C52.142 46.9036 51.8649 46.9036 51.5878 46.8899C50.9796 46.8763 50.3714 46.8558 49.7632 46.8149C49.6551 46.8149 49.5537 46.8081 49.4456 46.8013C48.9995 46.774 48.5535 46.7399 48.1007 46.699C48.0129 46.6922 47.9318 46.6853 47.8439 46.6717C47.4114 46.6308 46.9789 46.583 46.5464 46.5353C46.3369 46.508 46.1274 46.4807 45.9179 46.4534C45.8098 46.4398 45.7017 46.4262 45.5935 46.4125C45.4786 46.3989 45.3705 46.3784 45.2556 46.3648C45.0259 46.3307 44.7893 46.2966 44.5596 46.2557C44.4514 46.2352 44.3433 46.2216 44.2352 46.2011C44.073 46.1738 43.9108 46.1465 43.7486 46.1124C43.5661 46.0783 43.3769 46.0442 43.1944 46.0101C43.1471 46.0033 43.1066 45.9897 43.0593 45.9828C41.4712 45.6759 39.9168 45.294 38.4031 44.8438C38.4031 44.8438 38.3895 44.8438 38.376 44.837C37.93 44.7074 37.4975 44.5642 37.0582 44.421C36.9704 44.3937 36.8825 44.3664 36.7947 44.3323C36.6595 44.2846 36.5176 44.2368 36.3824 44.1891C36.2743 44.155 36.1729 44.1141 36.0648 44.0732C35.3485 43.814 34.6389 43.5412 33.9496 43.2479C33.7874 43.1797 33.6252 43.1047 33.463 43.0365C32.9156 42.7977 32.3817 42.5454 31.8614 42.2862C31.7803 42.2453 31.6992 42.2044 31.6181 42.1635C31.4626 42.0884 31.314 42.0066 31.1585 41.9247C31.0774 41.8838 30.9896 41.8361 30.9085 41.7952C30.6922 41.6792 30.4692 41.5564 30.2597 41.4337C30.1651 41.3791 30.0773 41.3314 29.9826 41.2768C29.7529 41.1472 29.5299 41.0108 29.3136 40.8812C28.6648 40.4857 28.0363 40.0696 27.4349 39.6399C27.3335 39.5717 27.2389 39.4967 27.1443 39.4217C26.8875 39.2307 26.6375 39.0398 26.3874 38.842C26.3739 38.8283 26.3604 38.8215 26.3401 38.8079C26.1374 38.6442 25.9346 38.4737 25.7319 38.31C25.6913 38.2759 25.6508 38.2418 25.6102 38.2077C25.4616 38.0849 25.3197 37.9553 25.1777 37.8257C25.1034 37.7575 25.0291 37.6961 24.9547 37.6279C24.7452 37.437 24.5425 37.2392 24.3465 37.0414C24.3127 37.0141 24.2857 36.98 24.2519 36.9527C24.0424 36.7413 23.8329 36.523 23.6369 36.298C23.5896 36.2434 23.5423 36.1889 23.495 36.1343C23.0963 35.691 22.7246 35.234 22.3799 34.7634C22.3462 34.7157 22.3124 34.6747 22.2786 34.627C22.1502 34.4497 22.0285 34.2723 21.9069 34.095C21.8596 34.0336 21.819 33.9654 21.7785 33.8972C21.4744 33.4334 21.1905 32.956 20.9337 32.4718C20.9202 32.4445 20.9067 32.424 20.8932 32.3967C20.6296 31.8852 20.3931 31.3601 20.1836 30.8213C20.1566 30.7462 20.1295 30.678 20.1025 30.603C20.0282 30.4052 19.9606 30.2006 19.893 30.0028C19.893 29.9892 19.8863 29.9755 19.8795 29.9619C19.7916 29.6959 19.7173 29.4299 19.643 29.1571C19.6295 29.0957 19.6092 29.0275 19.5957 28.9661C19.5348 28.7342 19.4875 28.4955 19.4402 28.2636C19.4402 28.2363 19.4267 28.2091 19.4267 28.1818C19.3591 27.8339 19.3051 27.4861 19.2578 27.1315C19.2578 27.1246 19.2578 27.1178 19.2578 27.111C19.224 26.8177 19.1969 26.5244 19.1834 26.2244C19.1834 26.1289 19.1834 26.0334 19.1699 25.9379C19.1632 25.706 19.1564 25.4741 19.1564 25.2354C19.1564 25.1467 19.1564 25.0581 19.1564 24.9626C19.1564 24.6557 19.1767 24.3419 19.2037 24.0214C19.2037 24.0214 19.2037 24.0214 19.2037 24.0146C19.224 23.7622 19.251 23.5099 19.2848 23.2575C19.2916 23.1893 19.2983 23.1279 19.3051 23.0597C19.3321 22.8415 19.3726 22.63 19.4064 22.4118C19.4267 22.3095 19.4402 22.2072 19.4605 22.0981C19.5213 21.7775 19.5889 21.4501 19.6768 21.1227C20.2917 18.647 21.3392 16.4031 22.6976 14.3774C20.0417 15.0322 17.5075 16.1371 15.2165 17.6376H15.1895Z" fill="url(#paint0_linear_1637_418)"/>
<path d="M63.4953 45.5596C63.4344 45.5801 63.3804 45.6005 63.3195 45.6142C63.306 45.6142 63.2925 45.621 63.279 45.6278C48.371 50.5248 12.7836 58.7569 12.9795 25.6988C12.9931 23.1139 13.8378 20.3312 15.1894 17.6304C13.3242 18.858 11.6212 20.3449 10.1412 22.0636C6.86359 27.2334 4.9646 33.3785 4.9646 39.9738C4.9646 40.4444 4.98487 40.915 5.00515 41.3856C5.01866 41.7061 5.03218 42.0267 5.05921 42.3404C5.07948 42.6473 5.10652 42.9542 5.14031 43.2612C5.1741 43.5749 5.20113 43.8886 5.24168 44.2024C5.28222 44.5093 5.32277 44.8094 5.37008 45.1095C5.41738 45.4164 5.46469 45.7233 5.51875 46.0302C5.57282 46.3303 5.64039 46.6304 5.70122 46.9237C5.76204 47.2238 5.82286 47.5239 5.8972 47.824C5.96478 48.1172 6.04587 48.4105 6.12697 48.7038C6.20806 48.9971 6.2824 49.2903 6.37025 49.5836C6.45811 49.8769 6.55272 50.1633 6.64733 50.4498C6.74194 50.7362 6.8298 51.0227 6.93117 51.3023C7.03929 51.5956 7.15418 51.8821 7.2623 52.1685C7.37043 52.4345 7.46504 52.7073 7.57993 52.9733C7.72185 53.3075 7.87052 53.6281 8.02595 53.9554C8.12057 54.16 8.20842 54.3715 8.30979 54.5761C8.44495 54.733 8.58011 54.883 8.71527 55.0331C8.83015 55.1558 8.94504 55.2854 9.05992 55.4082C9.22211 55.5787 9.3843 55.7492 9.54649 55.9197C9.66814 56.0425 9.78302 56.1584 9.90467 56.2812C10.0601 56.438 10.2155 56.5881 10.371 56.7449C10.3912 56.7586 10.4048 56.779 10.425 56.7927C10.5399 56.9018 10.6548 57.0041 10.7697 57.1132C10.9048 57.2428 11.0468 57.3656 11.1819 57.4952C11.2495 57.5566 11.3238 57.618 11.3914 57.6862C11.5739 57.843 11.7563 57.9999 11.9388 58.1568C11.9861 58.1977 12.0267 58.2386 12.074 58.2727C12.1483 58.3341 12.2226 58.3955 12.297 58.45C12.4186 58.5523 12.5403 58.6478 12.6687 58.7501C12.8106 58.8661 12.9593 58.982 13.1012 59.098C13.2701 59.2276 13.4458 59.3571 13.6215 59.4867C13.777 59.6027 13.9324 59.7186 14.0878 59.8277C14.2635 59.9505 14.4325 60.0733 14.6082 60.196C14.7704 60.3052 14.9393 60.4211 15.1015 60.5302C15.2367 60.6189 15.3786 60.7076 15.5138 60.7962C15.5746 60.8371 15.6422 60.8781 15.703 60.919C15.8517 61.0145 16.0003 61.1031 16.1558 61.1986C16.2774 61.2737 16.3991 61.3487 16.5275 61.4237C16.6356 61.4919 16.7505 61.5533 16.8586 61.6147C17.0073 61.6965 17.1492 61.7784 17.2979 61.8602C17.3925 61.9148 17.4871 61.9693 17.5885 62.0239C17.7371 62.1057 17.8926 62.1876 18.048 62.2626C18.271 62.3785 18.5008 62.5013 18.7306 62.6104C18.9063 62.6991 19.082 62.7809 19.2644 62.8628C19.4807 62.9651 19.6969 63.0674 19.92 63.1629C20.0011 63.197 20.0821 63.2311 20.17 63.272C20.2849 63.3197 20.3998 63.3675 20.5147 63.4152C20.7039 63.4971 20.8863 63.5721 21.0756 63.6471C21.1905 63.6949 21.3053 63.7358 21.427 63.7835C21.5486 63.8313 21.6635 63.8722 21.7852 63.9199C21.9473 63.9813 22.1028 64.0359 22.265 64.0973C22.3866 64.1382 22.5083 64.1859 22.6299 64.2268C22.7786 64.2746 22.9272 64.3292 23.0759 64.3769C23.2178 64.4246 23.3598 64.4656 23.5017 64.5133C23.6166 64.5474 23.7314 64.5883 23.8396 64.6224C24.022 64.677 24.2113 64.7316 24.3937 64.7793C24.5762 64.8339 24.7587 64.8816 24.9479 64.9293C24.9884 64.943 25.029 64.9498 25.0695 64.9634C25.2925 65.018 25.5155 65.0726 25.7453 65.1271C25.9616 65.1749 26.1778 65.2294 26.3941 65.2772C26.6306 65.3249 26.8739 65.3727 27.1104 65.4204C27.2861 65.4545 27.4686 65.4886 27.6443 65.5227C27.7659 65.5432 27.8808 65.5636 28.0025 65.5773C28.1714 65.6046 28.3404 65.6318 28.5026 65.6523C28.6445 65.6728 28.7796 65.6932 28.9216 65.7137C29.0635 65.7341 29.2054 65.7478 29.3541 65.7682C29.55 65.7887 29.7528 65.8092 29.9488 65.8296C30.0434 65.8364 30.138 65.8501 30.2326 65.8569C30.3813 65.8705 30.5299 65.8842 30.6854 65.8978C30.9422 65.9183 31.199 65.9319 31.4558 65.9456C31.5099 65.9456 31.5572 65.9524 31.6112 65.9524C31.7464 65.9592 31.8815 65.966 32.0167 65.9729C32.4627 65.9933 32.902 66.0001 33.3548 66.0001C33.8076 66.0001 34.2198 65.9933 34.6455 65.9729C34.8483 65.966 35.051 65.9524 35.2538 65.9388C35.4768 65.9251 35.6998 65.9183 35.9228 65.8978C36.1323 65.8842 36.335 65.8569 36.5445 65.8364C36.7608 65.816 36.977 65.8023 37.1933 65.7751C37.3825 65.7546 37.5717 65.7273 37.761 65.7C37.8826 65.6864 37.9975 65.6659 38.1191 65.6523C38.2273 65.6387 38.3421 65.625 38.4503 65.6046C38.6665 65.5705 38.876 65.5295 39.0923 65.4954C39.2883 65.4613 39.491 65.4272 39.687 65.3931C39.9235 65.3454 40.16 65.2908 40.3966 65.2431C40.5655 65.209 40.7412 65.1749 40.9102 65.134C41.1602 65.0726 41.4035 65.0112 41.6535 64.943C41.809 64.9021 41.9644 64.868 42.1131 64.827C42.3699 64.7588 42.6199 64.677 42.87 64.602C43.0119 64.561 43.1538 64.5201 43.2957 64.4792C43.5593 64.3974 43.8228 64.3019 44.0864 64.2132C44.2148 64.1723 44.3365 64.1314 44.4649 64.0836C44.7487 63.9813 45.0258 63.879 45.3028 63.7699C45.4042 63.729 45.5123 63.6949 45.6137 63.6539C45.9043 63.538 46.1881 63.4152 46.4787 63.2925C46.5666 63.2515 46.6544 63.2174 46.7423 63.1833C47.0396 63.0538 47.3302 62.9173 47.6208 62.7741C47.6952 62.74 47.7763 62.7059 47.8506 62.665C48.1615 62.5149 48.4588 62.3581 48.7629 62.2012C48.817 62.1739 48.8778 62.1467 48.9319 62.1125C49.2495 61.942 49.5671 61.7647 49.878 61.5874C49.9185 61.5669 49.9523 61.5465 49.9929 61.526C50.3037 61.3419 50.6146 61.1577 50.9187 60.9667C50.9525 60.9463 50.993 60.9258 51.0268 60.8985C51.3512 60.6939 51.6688 60.4825 51.9865 60.2711C52 60.2574 52.0203 60.2506 52.0405 60.237C52.3581 60.0187 52.6758 59.7936 52.9866 59.5686C53.0002 59.5617 53.0137 59.5481 53.0272 59.5413C53.3448 59.3094 53.6557 59.0707 53.9598 58.8251C53.9665 58.8251 53.9801 58.8115 53.9868 58.8047C54.2977 58.5592 54.6018 58.3068 54.9059 58.0476C54.9059 58.0476 54.9127 58.0408 54.9194 58.034C55.2235 57.7748 55.5276 57.5088 55.8182 57.236C59.0756 54.2419 61.7449 50.6135 63.6304 46.5349C63.7994 46.1666 63.9616 45.7983 64.1237 45.4232C64.1237 45.4232 64.1237 45.4232 64.1237 45.4164C63.9345 45.4709 63.7318 45.5119 63.5358 45.5596H63.4953Z" fill="url(#paint1_linear_1637_418)"/>
<path d="M28.5837 8.03472C26.3333 9.85575 24.2856 11.9564 22.6772 14.3708C23.2111 14.2412 23.745 14.1321 24.2856 14.0366C24.3262 14.0298 24.3667 14.023 24.4073 14.0161C25.4818 13.832 26.5766 13.7297 27.6714 13.6956C27.7457 13.6956 27.8201 13.6956 27.8876 13.6956C28.435 13.682 28.9824 13.6888 29.5298 13.7161C29.5433 13.7161 29.5568 13.7161 29.5704 13.7161C30.084 13.7433 30.5976 13.7911 31.1112 13.8456C31.2193 13.8593 31.3274 13.8729 31.4423 13.8866C31.9762 13.9548 32.5033 14.0366 33.0372 14.1457C33.0642 14.1457 33.0845 14.1594 33.1115 14.1594C33.6116 14.2617 34.1049 14.3844 34.605 14.514C34.7334 14.5481 34.8686 14.5891 34.997 14.6232C35.5174 14.7732 36.0377 14.9369 36.5513 15.121C41.9982 17.0989 46.3098 20.8569 49.0738 25.5084C48.6954 24.1239 48.202 22.7803 47.5938 21.4844C47.1884 20.625 46.7288 19.7861 46.2287 18.9745C45.4718 17.7605 44.6136 16.6147 43.6472 15.5439C43.0052 14.8346 42.3226 14.1526 41.5928 13.5183C39.4099 11.6086 36.8487 10.0672 33.9698 9.02367C33.5102 8.85316 33.044 8.70993 32.5844 8.57352C32.456 8.5326 32.3276 8.4985 32.1992 8.4644C31.8478 8.36892 31.4896 8.27343 31.1382 8.19159C31.0166 8.16431 30.8949 8.13702 30.7665 8.10974C30.3137 8.01426 29.861 7.92559 29.4082 7.85739C29.4014 7.85739 29.3879 7.85739 29.3811 7.85739C29.3406 7.85739 29.3 7.85057 29.2595 7.84375C29.0365 7.90513 28.8202 7.97334 28.5972 8.04154L28.5837 8.03472Z" fill="url(#paint2_linear_1637_418)"/>
<path d="M38.0045 6.64354C35.3756 6.64354 32.8279 6.9641 30.3748 7.54382C30.8478 7.55064 31.3141 7.57792 31.7872 7.61885C31.848 7.61885 31.9021 7.63249 31.9629 7.63249C32.3481 7.66659 32.7265 7.71433 33.1117 7.76889C33.1658 7.77571 33.2199 7.78253 33.2672 7.78935C33.6997 7.85756 34.1322 7.9394 34.5647 8.03489C34.5647 8.03489 34.5782 8.03489 34.585 8.03489C34.9837 8.12355 35.3824 8.22586 35.7744 8.3418C35.8892 8.3759 35.9974 8.41 36.1123 8.44411C36.4164 8.53959 36.7205 8.63508 37.0178 8.7442C37.1327 8.78512 37.2476 8.82604 37.3692 8.86697C37.768 9.01701 38.1667 9.17388 38.5654 9.35121C39.1398 9.61038 39.7007 9.89002 40.2414 10.1901C41.3226 10.7971 42.3363 11.486 43.2757 12.2498C44.215 13.0137 45.0733 13.8526 45.8572 14.7461C47.0264 16.0897 48.0198 17.5765 48.8172 19.1588C48.7091 18.6269 48.5807 18.0949 48.432 17.5765C48.3982 17.4469 48.3577 17.3174 48.3171 17.1809C48.1685 16.6899 48.013 16.2056 47.8306 15.7282C47.817 15.7009 47.8103 15.6668 47.7968 15.6396C47.594 15.1212 47.371 14.6097 47.1277 14.105C47.0872 14.0163 47.0399 13.9277 46.9993 13.839C46.756 13.3547 46.506 12.8705 46.2289 12.4067C46.2289 12.3931 46.2154 12.3863 46.2086 12.3726C45.9045 11.8679 45.5802 11.37 45.2355 10.8926C45.2085 10.8585 45.1882 10.8244 45.1612 10.7903C44.1002 9.32393 42.8499 7.98714 41.424 6.82087C40.3022 6.70492 39.1601 6.63672 38.0045 6.63672V6.64354Z" fill="url(#paint3_linear_1637_418)"/>
<path d="M17.3519 13.9684C14.5338 16.2464 12.0942 18.9881 10.1411 22.0709C11.6211 20.3522 13.3241 18.8585 15.1893 17.6377C17.4803 16.1372 20.0077 15.0323 22.6704 14.3776C24.2855 11.9632 26.3332 9.86253 28.5768 8.0415C24.4342 9.2828 20.6362 11.3153 17.3519 13.9752V13.9684Z" fill="#04C3EB"/>
<path d="M31.8681 0C20.9742 0.286454 5.28226 5.51082 0.619266 25.6444C-0.414701 30.1186 0.0245658 36.0454 0.646298 39.0941C0.67333 39.2374 0.713877 39.3806 0.740909 39.5238C0.740909 39.4079 0.747667 39.2987 0.754425 39.1896C0.822005 37.2458 0.957164 35.3702 1.16666 33.5969C1.32209 32.3011 1.51132 31.053 1.73433 29.8458C2.3493 26.5174 3.21432 23.5233 4.30235 20.8497C4.39696 20.6247 4.49158 20.3996 4.59294 20.1745C6.78252 15.0593 9.78306 11.1444 13.3242 8.29352C18.1967 4.36501 24.0761 2.44168 30.2124 2.19615C30.6719 2.17568 31.1382 2.16886 31.5977 2.16886C34.2266 2.16886 41.4441 3.44427 41.4441 3.44427C41.4441 3.44427 39.214 3.28058 35.862 3.56703C32.8682 3.81938 28.9824 4.43321 24.9682 5.83138C20.8729 7.25683 16.6627 9.50754 13.1485 13.0405C9.08023 17.1258 5.94454 22.9299 5.03897 31.1621C5.00518 31.4758 4.98491 31.81 4.95787 32.1374C4.7281 34.7973 4.70783 37.696 4.97139 40.8674C4.97139 40.8811 4.97815 40.8879 4.98491 40.8947C4.98491 41.0652 5.00518 41.2289 5.01194 41.3926C4.99166 40.922 4.97139 40.4582 4.97139 39.9808C4.97139 33.3855 6.87038 27.2404 10.148 22.0706C12.101 18.9878 14.5407 16.246 17.3587 13.968C20.6431 11.3081 24.4478 9.27565 28.5837 8.03435C28.8067 7.96614 29.023 7.89794 29.246 7.83656C29.246 7.83656 29.2527 7.83656 29.2595 7.83656C29.6177 7.73425 29.9758 7.64559 30.3408 7.55692C30.3543 7.55692 30.361 7.55692 30.3745 7.5501C32.8277 6.96356 35.3754 6.64982 38.0043 6.64982C39.1599 6.64982 40.2952 6.71802 41.4238 6.83397C41.8901 6.88171 42.3496 6.94309 42.8092 7.0113C42.9443 7.03176 43.0795 7.05222 43.2147 7.0795C43.5458 7.13406 43.8769 7.18863 44.2013 7.25001C44.3433 7.27729 44.4852 7.30457 44.6271 7.33867C44.965 7.40688 45.2961 7.4819 45.634 7.56374C45.7489 7.59103 45.8638 7.61831 45.9787 7.64559C46.4179 7.75471 46.8572 7.87066 47.2897 8.00025C47.7695 8.14347 48.2426 8.29352 48.7156 8.45721C49.0198 8.55951 49.3171 8.66864 49.6145 8.78458C50.8376 9.24837 52.027 9.78717 53.1759 10.3874C53.3178 10.4624 53.453 10.5374 53.5881 10.6124C54.1896 10.9398 54.7843 11.2876 55.3655 11.6491C55.5006 11.731 55.629 11.8128 55.7642 11.9015C56.8455 12.5971 57.8929 13.361 58.8796 14.1726C52.9123 5.59267 43.039 0 31.8681 0Z" fill="url(#paint4_linear_1637_418)"/>
<path d="M31.5977 2.16211C31.1314 2.16211 30.6719 2.16893 30.2123 2.18939C24.0693 2.43492 18.1967 4.35825 13.3242 8.28676C9.78978 11.1377 6.78925 15.0525 4.59291 20.1678C4.4983 20.3928 4.39693 20.6111 4.30232 20.843C3.21429 23.5166 2.34927 26.5107 1.7343 29.839C1.51129 31.0462 1.32206 32.2943 1.16663 33.5902C0.957133 35.3635 0.821974 37.2391 0.754395 39.1828C0.909828 40.0695 1.09905 40.9561 1.32206 41.8428C1.38288 42.0406 1.43695 42.2384 1.49777 42.4361C1.57211 42.6749 1.64644 42.9067 1.72754 43.1455C1.88297 43.6161 2.05192 44.0798 2.22763 44.5368C2.24114 44.5641 2.2479 44.5914 2.26142 44.6187C2.329 44.7823 2.39658 44.946 2.46416 45.1097C2.61283 45.478 2.76827 45.8395 2.93046 46.1942C3.01831 46.3851 3.09941 46.5761 3.19402 46.7602C3.19402 46.7602 3.19402 46.7739 3.20077 46.7807C3.36297 47.1285 3.53191 47.4627 3.70762 47.8037C3.74817 47.8788 3.78196 47.9538 3.81575 48.0288C3.9036 48.1925 3.9847 48.3494 4.07255 48.5131C4.30232 48.9291 4.53885 49.3451 4.78214 49.7544C4.84972 49.8703 4.92405 49.9863 4.99839 50.1022C4.99839 50.1158 5.01191 50.1227 5.01866 50.1363C5.07949 50.2386 5.15382 50.3341 5.21465 50.4364C5.41738 50.7569 5.62012 51.0775 5.82962 51.3844C5.88368 51.4663 5.93775 51.5481 5.99181 51.6231C6.05939 51.7186 6.12697 51.8073 6.19455 51.9028C6.45135 52.2642 6.71491 52.6257 6.98523 52.9804C7.04605 53.0622 7.11363 53.1441 7.17445 53.2259C7.19473 53.2532 7.215 53.2737 7.23527 53.3009C7.56641 53.7238 7.91107 54.1398 8.26248 54.5491C8.276 54.5627 8.28952 54.5763 8.29627 54.59C8.1949 54.3854 8.11381 54.1739 8.0192 53.9693C7.87052 53.6419 7.71509 53.3146 7.57317 52.9872C7.45829 52.7212 7.36368 52.4484 7.25555 52.1824C7.14066 51.8959 7.02578 51.6095 6.92441 51.3162C6.82304 51.0366 6.73519 50.7501 6.64057 50.4637C6.54596 50.1772 6.45135 49.8908 6.3635 49.5975C6.27564 49.3042 6.20131 49.0109 6.12021 48.7177C6.03912 48.4244 5.95802 48.1311 5.89044 47.8378C5.8161 47.5378 5.75528 47.2377 5.69446 46.9376C5.63364 46.6375 5.56606 46.3442 5.512 46.0441C5.45793 45.7372 5.41063 45.4303 5.36332 45.1234C5.31602 44.8233 5.26871 44.5163 5.23492 44.2163C5.19437 43.9025 5.16734 43.5888 5.13355 43.275C5.10652 42.9681 5.07273 42.6612 5.05245 42.3543C5.03218 42.0337 5.01191 41.72 4.99839 41.3995C4.99163 41.229 4.97812 41.0653 4.97136 40.9016C4.97136 40.8879 4.9646 40.8811 4.95784 40.8743C4.69428 37.696 4.71456 34.8042 4.94433 32.1443C4.97136 31.8237 4.99163 31.4895 5.02542 31.169C5.93099 22.9368 9.06668 17.1327 13.135 13.0474C16.6491 9.51442 20.8661 7.26372 24.9546 5.83827C28.9689 4.4401 32.8547 3.82627 35.8485 3.57392C39.2004 3.28746 41.4305 3.45115 41.4305 3.45115C41.4305 3.45115 34.213 2.17575 31.5842 2.17575L31.5977 2.16211Z" fill="url(#paint5_linear_1637_418)"/>
<path d="M10.1411 22.0703C11.6211 20.3516 13.3241 18.8579 15.1893 17.6371C15.1893 17.6371 15.8786 15.9456 17.1288 14.1587C14.4054 16.4026 12.0401 19.0761 10.1411 22.0771V22.0703Z" fill="#00AFDF"/>
<path d="M74.0784 15.98C74.0784 15.6595 74.3352 15.3662 74.6866 15.3662H81.9852C85.7764 15.3662 88.7093 17.9375 88.7093 21.3204C88.7093 23.7961 86.7022 25.7263 85.202 26.4356C86.8915 26.9812 89.3446 28.7204 89.3446 31.6804C89.3446 35.2816 86.2832 37.8869 82.3974 37.8869H74.6866C74.3352 37.8869 74.0784 37.6005 74.0784 37.2731V15.98ZM81.6 24.826C83.2286 24.826 84.3437 23.537 84.3437 21.9342C84.3437 20.3314 83.2286 19.1992 81.6 19.1992H78.1872V24.826H81.6ZM82.046 34.088C83.6409 34.088 84.9181 32.8331 84.9181 31.1621C84.9181 29.4911 83.3233 28.3658 81.6676 28.3658H78.194V34.0948H82.0528L82.046 34.088Z" fill="#0D3A5D"/>
<path d="M93.8792 15.98C93.8792 15.6595 94.136 15.3662 94.4874 15.3662H97.4203C97.7379 15.3662 98.0285 15.6527 98.0285 15.98V34.0266H106.158C106.51 34.0266 106.767 34.3131 106.767 34.6405V37.2799C106.767 37.6005 106.51 37.8938 106.158 37.8938H94.4941C94.1427 37.8938 93.8859 37.6073 93.8859 37.2799V15.9869L93.8792 15.98Z" fill="#0D3A5D"/>
<path d="M109.051 15.98C109.051 15.6595 109.335 15.3662 109.659 15.3662H112.687C113.038 15.3662 113.295 15.6527 113.295 15.98V29.1365C113.295 31.8714 115.146 34.0266 117.917 34.0266C120.688 34.0266 122.573 31.8714 122.573 29.1706V15.98C122.573 15.6595 122.83 15.3662 123.182 15.3662H126.209C126.527 15.3662 126.817 15.6527 126.817 15.98V29.3615C126.817 34.2517 122.959 38.2075 117.924 38.2075C112.889 38.2075 109.064 34.2517 109.064 29.3615V15.98H109.051Z" fill="#0D3A5D"/>
<path d="M132.312 15.98C132.312 15.6595 132.568 15.3662 132.92 15.3662H145.895C146.246 15.3662 146.503 15.6527 146.503 15.98V18.6195C146.503 18.9401 146.246 19.2333 145.895 19.2333H136.461V24.5055H144.334C144.652 24.5055 144.942 24.7919 144.942 25.1193V27.786C144.942 28.1407 144.658 28.3999 144.334 28.3999H136.461V34.0266H145.895C146.246 34.0266 146.503 34.3131 146.503 34.6405V37.2799C146.503 37.6005 146.246 37.8938 145.895 37.8938H132.92C132.568 37.8938 132.312 37.6073 132.312 37.2799V15.9869V15.98Z" fill="#0D3A5D"/>
<path d="M149.294 16.1435C149.166 15.6934 149.423 15.3728 149.869 15.3728H152.802C153.058 15.3728 153.309 15.5979 153.376 15.8229L156.688 28.6588H156.816L161.884 15.4069C161.945 15.2159 162.107 15.0522 162.425 15.0522H162.999C163.317 15.0522 163.479 15.2159 163.54 15.4069L168.642 28.6588H168.771L172.021 15.8229C172.082 15.5979 172.339 15.3728 172.596 15.3728H175.529C175.975 15.3728 176.232 15.6934 176.103 16.1435L170.082 37.7571C170.021 38.0163 169.764 38.2073 169.507 38.2073H169.001C168.717 38.2073 168.521 38.0436 168.46 37.8526L162.756 23.2776H162.594L156.951 37.8526C156.856 38.0436 156.728 38.2073 156.41 38.2073H155.904C155.647 38.2073 155.397 38.0163 155.329 37.7571L149.308 16.1435H149.294Z" fill="#1FC0ED"/>
<path d="M175.711 37.0546L185.625 15.4069C185.72 15.2159 185.882 15.0522 186.166 15.0522H186.483C186.801 15.0522 186.929 15.2159 187.024 15.4069L196.843 37.0546C197.033 37.4707 196.783 37.8935 196.303 37.8935H193.532C193.052 37.8935 192.829 37.7026 192.606 37.2524L191.045 33.7809H181.516L179.955 37.2524C179.827 37.573 179.543 37.8935 179.029 37.8935H176.259C175.779 37.8935 175.529 37.4775 175.718 37.0546H175.711ZM189.477 30.2002L186.287 23.1207H186.193L183.071 30.2002H189.477Z" fill="#1FC0ED"/>
<path d="M201.223 19.2333H196.343C195.992 19.2333 195.735 18.9469 195.735 18.6195V15.98C195.735 15.6595 195.992 15.3662 196.343 15.3662H210.271C210.623 15.3662 210.88 15.6527 210.88 15.98V18.6195C210.88 18.9401 210.623 19.2333 210.271 19.2333H205.392V37.2799C205.392 37.6005 205.108 37.8938 204.784 37.8938H201.817C201.5 37.8938 201.209 37.6073 201.209 37.2799V19.2333H201.223Z" fill="#1FC0ED"/>
<path d="M214.015 15.98C214.015 15.6595 214.272 15.3662 214.623 15.3662H227.599C227.95 15.3662 228.207 15.6527 228.207 15.98V18.6195C228.207 18.9401 227.95 19.2333 227.599 19.2333H218.165V24.5055H226.038C226.355 24.5055 226.646 24.7919 226.646 25.1193V27.786C226.646 28.1407 226.362 28.3999 226.038 28.3999H218.165V34.0266H227.599C227.95 34.0266 228.207 34.3131 228.207 34.6405V37.2799C228.207 37.6005 227.95 37.8938 227.599 37.8938H214.623C214.272 37.8938 214.015 37.6073 214.015 37.2799V15.9869V15.98Z" fill="#1FC0ED"/>
<path d="M232.843 15.98C232.843 15.6595 233.1 15.3662 233.451 15.3662H242.568C246.393 15.3662 249.515 18.4558 249.515 22.282C249.515 25.242 247.569 27.6564 244.798 28.7818L249.163 36.9525C249.387 37.3686 249.163 37.8869 248.623 37.8869H245.278C244.994 37.8869 244.832 37.7232 244.771 37.6005L240.534 29.0751H236.992V37.2799C236.992 37.6005 236.709 37.8938 236.384 37.8938H233.451C233.1 37.8938 232.843 37.6073 232.843 37.2799V15.9869V15.98ZM242.216 25.6308C243.906 25.6308 245.372 24.1508 245.372 22.3502C245.372 20.6451 243.906 19.2333 242.216 19.2333H237.019V25.6376H242.216V25.6308Z" fill="#1FC0ED"/>
<path d="M203.219 47.4014V46.1054H209.423V47.4014H207.155V54.4814H205.475V47.4014H203.219ZM213.011 51.1454V54.4814H211.319V46.1054H214.403C215.371 46.1054 216.115 46.3494 216.635 46.8374C217.163 47.3174 217.427 47.9134 217.427 48.6254C217.427 49.1534 217.267 49.6454 216.947 50.1014C216.627 50.5574 216.123 50.8694 215.435 51.0374L217.571 54.4814H215.567L213.563 51.1454H213.011ZM213.011 47.4014V49.8494H214.403C214.827 49.8494 215.151 49.7414 215.375 49.5254C215.599 49.3014 215.711 49.0014 215.711 48.6254C215.711 48.2494 215.599 47.9534 215.375 47.7374C215.151 47.5134 214.827 47.4014 214.403 47.4014H213.011ZM225.208 54.4814L224.668 52.9094H221.404L220.864 54.4814H219.076L222.04 46.0814H224.044L226.996 54.4814H225.208ZM221.848 51.6134H224.236L223.036 48.1214L221.848 51.6134ZM231.101 54.4814L228.041 46.1054H229.829L232.121 52.7894L234.413 46.1054H236.213L233.141 54.4814H231.101ZM242.717 46.0814V47.3774H239.573V49.5734H242.357V50.8694H239.573V53.1854H242.717V54.4814H237.881V46.0814H242.717ZM245.043 46.1054H246.735V53.1974H249.423V54.4814H245.043V46.1054Z" fill="#58BFE9"/>
<defs>
<linearGradient id="paint0_linear_1637_418" x1="12.9796" y1="32.3149" x2="63.2791" y2="32.3149" gradientUnits="userSpaceOnUse">
<stop stop-color="#1376BD"/>
<stop offset="1" stop-color="#00BEE5"/>
</linearGradient>
<linearGradient id="paint1_linear_1637_418" x1="4.9646" y1="41.8221" x2="64.0832" y2="41.8221" gradientUnits="userSpaceOnUse">
<stop stop-color="#105C93"/>
<stop offset="1" stop-color="#0E93D0"/>
</linearGradient>
<linearGradient id="paint2_linear_1637_418" x1="22.6705" y1="16.6761" x2="49.0671" y2="16.6761" gradientUnits="userSpaceOnUse">
<stop stop-color="#93E4FF"/>
<stop offset="1" stop-color="#8DE3FF"/>
</linearGradient>
<linearGradient id="paint3_linear_1637_418" x1="30.3748" y1="12.9046" x2="48.8037" y2="12.9046" gradientUnits="userSpaceOnUse">
<stop stop-color="#93E4FF"/>
<stop offset="1" stop-color="#8DE3FF"/>
</linearGradient>
<linearGradient id="paint4_linear_1637_418" x1="3.35624" y1="27.1722" x2="55.7331" y2="-0.0271636" gradientUnits="userSpaceOnUse">
<stop stop-color="#11588E"/>
<stop offset="0.62" stop-color="#16A0D0"/>
<stop offset="1" stop-color="#1AC9F5"/>
</linearGradient>
<linearGradient id="paint5_linear_1637_418" x1="7.94486" y1="34.3609" x2="35.5902" y2="4.22233" gradientUnits="userSpaceOnUse">
<stop stop-color="#00C0E7"/>
<stop offset="0.48" stop-color="#3BD2FF"/>
<stop offset="1" stop-color="#66EFFF"/>
</linearGradient>
</defs>
</svg>
