<svg width="16" height="17" viewBox="0 0 16 17" fill="none" xmlns="http://www.w3.org/2000/svg">
<g id="Viber">
<g id="Group">
<path id="Vector" d="M15.3848 3.26978C14.4614 1.31689 12.9417 0.402686 10.8641 0.178375C9.08876 -0.013298 7.31891 -0.0875351 5.54649 0.144456C4.9174 0.227013 4.27614 0.30509 3.67521 0.495162C2.67429 0.81131 1.89768 1.32457 1.23978 2.12838C0.792118 2.67524 0.452611 3.44033 0.314056 4.14558C0.119184 5.13562 0.00590808 6.13335 0.000468285 7.14291C-0.00593147 8.31086 0.0497466 9.48426 0.386694 10.6004C0.891314 12.273 2.08039 13.3545 3.66721 14.0153C3.83712 14.086 3.89024 14.1586 3.88576 14.334C3.87424 14.8137 3.86624 15.2946 3.88992 15.7733C3.89856 15.9496 3.96032 16.1534 4.06815 16.2882C4.34654 16.6363 4.80188 16.6081 5.15419 16.2462C5.64793 15.7391 6.14167 15.2316 6.62325 14.7129C6.77365 14.5506 6.92212 14.47 7.15091 14.4882C7.45554 14.5125 9.78409 14.4393 10.6343 14.3394C11.2167 14.271 11.8096 14.1823 12.3626 13.997C13.3734 13.6585 14.007 13.2524 14.6642 12.4253C15.0796 11.9024 15.541 11.0516 15.6773 10.3885C16.0223 8.70989 16.0949 7.02035 15.8747 5.32186C15.7842 4.62268 15.628 3.83615 15.3852 3.2701L15.3848 3.26978ZM14.285 10.0298C14.1343 10.769 13.7699 11.3683 13.2608 11.8842C12.4787 12.6768 11.3978 12.8572 10.3431 12.9321C9.42603 12.9971 8.50606 13.0259 7.58834 13.0848C7.47858 13.0918 7.35059 13.1625 7.27123 13.2432C6.4639 14.0604 5.66649 14.8876 4.8598 15.7058C4.85404 15.7115 4.84796 15.7173 4.84156 15.7227C4.70237 15.8418 4.48062 15.7557 4.46654 15.573C4.46622 15.5672 4.4659 15.5615 4.4659 15.5557C4.45726 14.7138 4.45342 13.8713 4.4659 13.0294C4.46878 12.8243 4.39102 12.7523 4.21023 12.6825C3.06979 12.2403 2.21094 11.4743 1.80136 10.3143C1.60585 9.76009 1.55593 9.14635 1.49545 8.55405C1.3553 7.18387 1.43689 5.82136 1.71368 4.47005C1.86504 3.73184 2.25574 3.17186 2.74436 2.63652C3.52289 1.78343 5.36026 1.58952 5.4905 1.5684C7.02196 1.31785 9.57642 1.35241 11.5562 1.75879C12.2342 1.89191 12.8096 2.21574 13.2947 2.6874C13.7273 3.10818 14.0825 3.6528 14.2249 4.2499C14.3593 4.81372 14.4473 5.39257 14.5049 5.97015C14.6409 7.33266 14.5593 8.68685 14.285 10.0308V10.0298Z" fill="#3DABC2"/>
</g>
<g id="Group_2">
<path id="Vector_2" d="M4.11799 5.7362C4.11799 5.7362 5.2837 8.56265 7.18379 9.91972C8.76965 11.0525 10.3933 12.0115 11.064 11.3088C11.7347 10.6061 12.1657 10.0951 11.2076 9.3767C10.2496 8.65801 9.69857 8.37866 9.34723 8.80968C8.99588 9.24071 8.86821 9.57606 7.94216 9.03336C7.01612 8.49034 6.32942 7.54829 6.20175 7.05327C6.07407 6.55825 6.16975 6.38258 6.58509 6.04723C7.00012 5.71188 6.79276 5.10519 6.12207 4.24282C5.45138 3.38045 5.2277 3.50845 4.65301 3.90747C4.07831 4.30682 3.63097 4.80184 4.11799 5.73588V5.7362Z" fill="#3DABC2"/>
<g id="Group_3">
<path id="Vector_3" d="M8.08499 3.67323C9.98956 3.67323 11.5335 5.21717 11.5335 7.12174C11.5335 7.22957 11.5284 7.33645 11.5185 7.44172L12.0416 7.62348C12.0628 7.45932 12.0736 7.29165 12.0736 7.12174C12.0736 4.9615 10.3223 3.21021 8.16211 3.21021C8.05107 3.21021 7.94132 3.215 7.83252 3.22428L7.94899 3.67611C7.99411 3.67451 8.03955 3.67323 8.08499 3.67323Z" fill="#3DABC2"/>
<path id="Vector_4" d="M8.42467 4.72246C9.62206 4.72246 10.5926 5.69298 10.5926 6.89037C10.5926 6.96653 10.5887 7.04205 10.5811 7.11629L11.0287 7.2718C11.0463 7.14732 11.0556 7.01997 11.0556 6.89037C11.0556 5.40339 9.85021 4.198 8.36323 4.198C8.27012 4.198 8.17828 4.2028 8.0874 4.21208L8.22148 4.73238C8.28835 4.72598 8.35619 4.72278 8.42499 4.72278L8.42467 4.72246Z" fill="#3DABC2"/>
<path id="Vector_5" d="M8.77266 5.72841C9.19793 5.76296 9.53615 6.11271 9.55727 6.53894C9.56079 6.61349 9.55503 6.68581 9.54063 6.75525L10.0097 6.91812C10.0382 6.80708 10.0529 6.69093 10.052 6.57061C10.0462 5.83624 9.44432 5.23594 8.71027 5.23146C8.58931 5.23082 8.4722 5.24586 8.36084 5.27498L8.48404 5.75336C8.57523 5.72937 8.67251 5.72009 8.77298 5.72809L8.77266 5.72841Z" fill="#3DABC2"/>
</g>
</g>
</g>
</svg>
