<svg width="95" height="15" viewBox="0 0 95 15" fill="none" xmlns="http://www.w3.org/2000/svg">
<g id="Rates">
<path id="Vector" d="M7.50717 6.33083e-08C7.07899 -0.000149937 6.64174 0.266253 6.38276 0.796503L4.78984 4.07603L1.15894 4.59135C-0.00873408 4.7538 -0.387034 5.89936 0.456191 6.72286L3.07977 9.27661L2.47077 12.8609C2.27022 14.0211 3.23254 14.7224 4.27452 14.1726C4.67712 13.9596 6.74719 12.8871 7.50717 12.4859L10.7398 14.1726C11.783 14.7224 12.7483 14.0219 12.5436 12.8609L11.9111 9.27661L14.5347 6.72286C15.3819 5.90236 15.0231 4.7571 13.8554 4.59135L10.2011 4.07603L8.63157 0.796503C8.37297 0.266028 7.93534 0.000225063 7.50717 6.33083e-08Z" fill="#3DABC2"/>
<path id="Vector_2" d="M27.5072 6.33083e-08C27.079 -0.000149937 26.6417 0.266253 26.3828 0.796503L24.7898 4.07603L21.1589 4.59135C19.9913 4.7538 19.613 5.89936 20.4562 6.72286L23.0798 9.27661L22.4708 12.8609C22.2702 14.0211 23.2325 14.7224 24.2745 14.1726C24.6771 13.9596 26.7472 12.8871 27.5072 12.4859L30.7398 14.1726C31.783 14.7224 32.7483 14.0219 32.5436 12.8609L31.9111 9.27661L34.5347 6.72286C35.3819 5.90236 35.0231 4.7571 33.8554 4.59135L30.2011 4.07603L28.6316 0.796503C28.373 0.266028 27.9353 0.000225063 27.5072 6.33083e-08Z" fill="#3DABC2"/>
<path id="Vector_3" d="M47.5072 6.33083e-08C47.079 -0.000149937 46.6417 0.266253 46.3828 0.796503L44.7898 4.07603L41.1589 4.59135C39.9913 4.7538 39.613 5.89936 40.4562 6.72286L43.0798 9.27661L42.4708 12.8609C42.2702 14.0211 43.2325 14.7224 44.2745 14.1726C44.6771 13.9596 46.7472 12.8871 47.5072 12.4859L50.7398 14.1726C51.783 14.7224 52.7483 14.0219 52.5436 12.8609L51.9111 9.27661L54.5347 6.72286C55.3819 5.90236 55.0231 4.7571 53.8554 4.59135L50.2011 4.07603L48.6316 0.796503C48.373 0.266028 47.9353 0.000225063 47.5072 6.33083e-08Z" fill="#3DABC2"/>
<path id="Vector_4" d="M67.5072 6.33083e-08C67.079 -0.000149937 66.6417 0.266253 66.3828 0.796503L64.7898 4.07603L61.1589 4.59135C59.9913 4.7538 59.613 5.89936 60.4562 6.72286L63.0798 9.27661L62.4708 12.8609C62.2702 14.0211 63.2325 14.7224 64.2745 14.1726C64.6771 13.9596 66.7472 12.8871 67.5072 12.4859L70.7398 14.1726C71.783 14.7224 72.7483 14.0219 72.5436 12.8609L71.9111 9.27661L74.5347 6.72286C75.3819 5.90236 75.0231 4.7571 73.8554 4.59135L70.2011 4.07603L68.6316 0.796503C68.373 0.266028 67.9353 0.000225063 67.5072 6.33083e-08Z" fill="#F8FCFF"/>
<path id="Vector_5" d="M87.5072 6.33083e-08C87.079 -0.000149937 86.6417 0.266253 86.3828 0.796503L84.7898 4.07603L81.1589 4.59135C79.9913 4.7538 79.613 5.89936 80.4562 6.72286L83.0798 9.27661L82.4708 12.8609C82.2702 14.0211 83.2325 14.7224 84.2745 14.1726C84.6771 13.9596 86.7472 12.8871 87.5072 12.4859L90.7398 14.1726C91.783 14.7224 92.7483 14.0219 92.5436 12.8609L91.9111 9.27661L94.5347 6.72286C95.3819 5.90236 95.0231 4.7571 93.8554 4.59135L90.2011 4.07603L88.6316 0.796503C88.373 0.266028 87.9353 0.000225063 87.5072 6.33083e-08Z" fill="#F8FCFF"/>
</g>
</svg>
