<svg width="20" height="20" viewBox="0 0 20 20" fill="none" xmlns="http://www.w3.org/2000/svg">
<g id="search">
<path id="Vector" d="M8.01416 0.953125C3.59586 0.953125 0.0141602 4.53513 0.0141602 8.95314C0.0141602 13.3712 3.59586 16.9532 8.01416 16.9532C9.85086 16.9532 11.5918 16.3222 12.9421 15.2822L17.2954 19.6722C17.686 20.0622 18.3424 20.0622 18.733 19.6722C19.1235 19.2812 19.1235 18.6252 18.733 18.2342L14.3495 13.8741C15.3903 12.5241 16.0142 10.7901 16.0142 8.95314C16.0142 4.53513 12.4325 0.953125 8.01416 0.953125ZM8.01416 2.95313C11.3279 2.95313 14.0142 5.63914 14.0142 8.95314C14.0142 12.2672 11.3279 14.9532 8.01416 14.9532C4.70046 14.9532 2.01416 12.2672 2.01416 8.95314C2.01416 5.63914 4.70046 2.95313 8.01416 2.95313Z" fill="white"/>
</g>
</svg>
