<svg width="45" height="9" viewBox="0 0 45 9" fill="none" xmlns="http://www.w3.org/2000/svg">
<path id="Wave" d="M36.5777 8.06152C33.667 8.06152 31.0474 6.59736 29.495 4.28644C27.9515 6.59736 25.323 8.06152 22.4212 8.06152C19.5193 8.06152 16.8909 6.59736 15.3473 4.28644C13.8038 6.59736 11.1753 8.06152 8.27343 8.06152C4.3484 8.06152 0.943771 5.3978 0 1.58743L2.3903 0.996474C3.06064 3.71312 5.4774 5.60066 8.27343 5.60066C11.0695 5.60066 13.4862 3.7043 14.1566 0.996474C14.2889 0.449616 14.7828 0.0615234 15.3473 0.0615234C15.9118 0.0615234 16.4057 0.449616 16.5469 0.996474C17.2172 3.71312 19.634 5.60066 22.43 5.60066C25.226 5.60066 27.6428 3.7043 28.3131 0.996474C28.4454 0.449616 28.9394 0.0615234 29.5127 0.0615234C30.086 0.0615234 30.5711 0.449616 30.7034 0.996474C31.3738 3.71312 33.7993 5.60066 36.5866 5.60066C39.3738 5.60066 41.7993 3.7043 42.4697 0.996474L44.86 1.58743C43.9162 5.3978 40.5116 8.06152 36.5866 8.06152H36.5777Z" fill="#3DABC2"/>
</svg>
