<svg width="70" height="14" viewBox="0 0 70 14" fill="none" xmlns="http://www.w3.org/2000/svg">
<path id="Wave" d="M57.0763 13.0798C52.5344 13.0798 48.4467 10.8009 46.0244 7.20396C43.6158 10.8009 39.5144 13.0798 34.9862 13.0798C30.4581 13.0798 26.3567 10.8009 23.9481 7.20396C21.5395 10.8009 17.4381 13.0798 12.9099 13.0798C6.78529 13.0798 1.47267 8.93376 0 3.00299L3.72985 2.08317C4.77586 6.31159 8.54699 9.24952 12.9099 9.24952C17.2729 9.24952 21.044 6.29786 22.09 2.08317C22.2965 1.23199 23.0672 0.62793 23.9481 0.62793C24.8289 0.62793 25.5997 1.23199 25.8199 2.08317C26.8659 6.31159 30.637 9.24952 35 9.24952C39.363 9.24952 43.1341 6.29786 44.1801 2.08317C44.3866 1.23199 45.1573 0.62793 46.0519 0.62793C46.9465 0.62793 47.7035 1.23199 47.91 2.08317C48.956 6.31159 52.7409 9.24952 57.0901 9.24952C61.4392 9.24952 65.2242 6.29786 66.2702 2.08317L70 3.00299C68.5273 8.93376 63.2147 13.0798 57.0901 13.0798H57.0763Z" fill="#3DABC2"/>
</svg>
